<svg width="22" height="22" viewBox="0 0 22 22" fill="none" xmlns="http://www.w3.org/2000/svg">
<path fill-rule="evenodd" clip-rule="evenodd" d="M2.46195 5.47625C1.51333 6.13086 0.94696 7.20982 0.94696 8.36238V17.9642C0.94696 19.9009 2.51691 21.4708 4.45355 21.4708H18.4799C20.4165 21.4708 21.9865 19.9009 21.9865 17.9642V8.36238C21.9865 7.20982 21.4201 6.13086 20.4715 5.47625L14.1222 1.09486C12.5237 -0.00818324 10.4097 -0.00818345 8.81126 1.09486L2.46195 5.47625ZM7.37563 12.12C6.40732 12.12 5.62234 12.9049 5.62234 13.8733V15.0421C5.62234 16.0104 6.40732 16.7954 7.37563 16.7954C8.34395 16.7954 9.12893 16.0104 9.12893 15.0421V13.8733C9.12893 12.9049 8.34395 12.12 7.37563 12.12Z" fill="white"/>
</svg>
