<svg width="25" height="34" viewBox="0 0 25 34" fill="none" xmlns="http://www.w3.org/2000/svg">
    <path d="M21.825 16.4273C21.0453 18.6326 19.9675 20.6961 18.7751 22.7034C16.7941 26.0387 14.5171 29.1671 12.05 32.2168C11.9248 32.0653 11.8159 31.9372 11.7112 31.8052C9.37818 28.8598 7.20197 25.8063 5.29618 22.568C4.02223 20.4032 2.87132 18.1784 2.08825 15.7829C1.65292 14.4498 1.35002 13.0912 1.39275 11.6785C1.46665 9.2434 2.28861 7.08031 3.85263 5.21047C5.44698 3.30446 7.47538 2.05777 9.92074 1.5934C13.6635 0.883005 16.939 1.87687 19.6428 4.55116C21.5858 6.47292 22.57 8.84628 22.7063 11.5708C22.7905 13.2597 22.3795 14.8576 21.825 16.4273Z" fill="#E4ECFE"/>
    <path d="M23.941 9.99269C23.5304 7.66445 22.5534 5.60436 20.93 3.88478C18.2821 1.08024 15.0067 -0.214551 11.1362 0.0289147C9.60546 0.125109 8.1461 0.523933 6.77689 1.2024C4.14526 2.50741 2.20743 4.49514 1.01039 7.17369C0.206374 8.97244 -0.123861 10.8597 0.04147 12.827C0.16408 14.2848 0.557969 15.6784 1.06037 17.0447C1.97332 19.527 3.21394 21.8493 4.58615 24.1043C6.59062 27.3996 8.85014 30.5157 11.2955 33.4999C11.4566 33.6961 11.6885 33.8349 11.8876 34H12.1867C12.3127 33.9247 12.4656 33.8732 12.5596 33.7693C12.8399 33.459 13.0996 33.13 13.3636 32.8052C16.0149 29.5385 18.4577 26.1291 20.5293 22.4652C21.6819 20.4264 22.6969 18.3263 23.404 16.0874C24.0332 14.0933 24.3079 12.0745 23.941 9.99269ZM21.825 16.4271C21.0453 18.6323 19.9675 20.6958 18.7751 22.7031C16.7941 26.0384 14.5171 29.1669 12.05 32.2166C11.9248 32.065 11.8158 31.9369 11.7112 31.805C9.37818 28.8596 7.20196 25.806 5.29617 22.5678C4.02223 20.403 2.87132 18.1782 2.08824 15.7827C1.65291 14.4496 1.35002 13.0909 1.39274 11.6782C1.46665 9.24314 2.2886 7.08005 3.85262 5.21022C5.44698 3.30421 7.47538 2.05751 9.92074 1.59314C13.6635 0.882746 16.939 1.87661 19.6428 4.5509C21.5857 6.47266 22.57 8.84602 22.7063 11.5705C22.7905 13.2595 22.3795 14.8573 21.825 16.4271Z" fill="black"/>
    <path d="M10.415 8.29543V7.09215C10.5603 7.06874 10.6906 7.04746 10.8269 7.02532C10.8324 7.07895 10.838 7.13046 10.8435 7.18153C10.8495 7.18153 10.8559 7.18153 10.8619 7.18196C10.8636 7.15003 10.867 7.11726 10.867 7.08534C10.8666 6.73376 10.8683 6.38218 10.8627 6.0306C10.861 5.93654 10.8982 5.8795 10.9832 5.86418C11.1054 5.84205 11.2306 5.83609 11.3532 5.81693C11.3968 5.81012 11.4438 5.79438 11.4775 5.76756C11.5395 5.71861 11.5728 5.72159 11.6125 5.7914C11.6381 5.83736 11.6744 5.87695 11.6984 5.92377C11.7159 5.95782 11.73 5.99911 11.7304 6.03699C11.7347 6.61543 11.7368 7.1943 11.739 7.77274V7.87532C11.7471 7.87575 11.7556 7.87617 11.7637 7.8766V7.36158C11.906 7.39648 12.0295 7.42244 12.1491 7.45947C12.1679 7.46543 12.1786 7.52332 12.1786 7.55695C12.1811 8.12602 12.1811 8.6951 12.1824 9.26418C12.1824 9.29951 12.1875 9.33399 12.1905 9.36931C12.2021 9.36889 12.214 9.36889 12.226 9.36846V9.2446C12.2268 8.61168 12.2281 7.97875 12.229 7.34583C12.229 7.20792 12.229 7.19983 12.3695 7.19388C12.5276 7.18707 12.681 7.11045 12.8433 7.16025C12.8933 7.17515 12.9159 7.14152 12.9125 7.0964C12.907 7.02532 12.9458 7.01085 13.0056 7.00787C13.0445 7.00574 13.0825 6.99297 13.1411 6.98063C13.1547 7.0283 13.1821 7.0798 13.1834 7.13258C13.1911 7.40414 13.1919 7.6757 13.1953 7.94726C13.1958 7.98046 13.1953 8.01408 13.2107 8.04686C13.2227 7.87192 13.2346 7.69741 13.247 7.52247C13.2607 7.52119 13.2739 7.51949 13.288 7.51821C13.3004 7.54673 13.3132 7.57525 13.329 7.60972C13.3483 7.59696 13.3675 7.58419 13.3987 7.5629C13.4115 7.6127 13.4192 7.65569 13.4337 7.69655C13.482 7.83489 13.5341 7.97109 13.5798 8.11028C13.596 8.1605 13.6029 8.21583 13.6046 8.26861C13.6161 8.60402 13.6247 8.93942 13.6349 9.27525C13.6358 9.30504 13.6405 9.33526 13.6435 9.36506C13.6546 9.36463 13.6653 9.36421 13.6764 9.36421C13.6764 9.18586 13.6823 9.00795 13.6742 8.83046C13.6695 8.72234 13.7362 8.6453 13.799 8.59508C13.8934 8.51889 13.9224 8.4278 13.9545 8.32309C13.9818 8.23329 14.0386 8.15241 14.0792 8.06558C14.104 8.01238 14.1292 7.95747 14.142 7.90129C14.1523 7.85617 14.1442 7.80722 14.1442 7.75997C14.1531 7.75657 14.1621 7.75359 14.1711 7.75019C14.1835 7.77147 14.2001 7.7919 14.2082 7.81488C14.2317 7.88554 14.2463 7.9596 14.2749 8.0277C14.2988 8.08474 14.3403 8.13411 14.3697 8.18859C14.3894 8.22477 14.4159 8.26351 14.418 8.30266C14.4351 8.61849 14.4471 8.93431 14.4607 9.25056C14.462 9.28376 14.4607 9.31781 14.4607 9.35144C14.4697 9.35144 14.4782 9.35144 14.4872 9.35186V8.5423C14.5863 8.56613 14.6641 8.58529 14.7252 8.48143C14.767 8.41035 14.9426 8.45589 14.964 8.53847C14.9913 8.64658 15.0076 8.75725 15.0379 8.86791C15.0379 8.73171 15.0383 8.59593 15.0379 8.45973C15.0375 8.32693 15.1686 8.25542 15.2925 8.31373C15.3391 8.33544 15.3972 8.33246 15.4548 8.3414C15.4587 8.38183 15.4625 8.42269 15.466 8.46356C15.4694 8.50484 15.4719 8.5457 15.4758 8.59508C15.554 8.60487 15.6287 8.61423 15.7163 8.6253V9.35314H15.7415C15.7415 9.23694 15.7389 9.12159 15.7419 9.00539C15.7518 8.65041 15.736 8.71596 16.0572 8.71936C16.1328 8.72022 16.1709 8.75256 16.1674 8.83812C16.1619 8.97517 16.1683 9.11308 16.1709 9.25056C16.1713 9.28334 16.176 9.31696 16.1785 9.34974C16.1875 9.34931 16.1961 9.34931 16.205 9.34888C16.205 9.20842 16.2072 9.06796 16.2046 8.9275C16.202 8.80194 16.2003 8.67595 16.264 8.56358C16.2858 8.52442 16.3298 8.49676 16.3661 8.46781C16.4477 8.40311 16.5639 8.36821 16.5528 8.22818C16.5519 8.21456 16.6058 8.18817 16.6365 8.18306C16.6617 8.1788 16.6916 8.19625 16.7228 8.20562C16.7232 8.20604 16.7296 8.21328 16.7284 8.21669C16.6827 8.30862 16.7262 8.3597 16.807 8.40014C16.9924 8.49122 17.0556 8.65892 17.0693 8.84791C17.0795 8.98454 17.0744 9.12244 17.0761 9.2595C17.0765 9.29015 17.0761 9.32122 17.0761 9.35186C17.0847 9.35186 17.0932 9.35229 17.1022 9.35229V8.88834C17.1111 8.88621 17.1205 8.88366 17.1295 8.88153C17.141 8.90367 17.1539 8.92622 17.1645 8.94878C17.2692 9.17735 17.3141 9.42124 17.3559 9.66726C17.4076 9.97202 17.4777 10.2742 17.5388 10.5777C17.5473 10.6211 17.5533 10.6658 17.5537 10.7101C17.555 11.0872 17.5747 11.466 17.5478 11.841C17.5285 12.1092 17.4999 12.3854 17.3376 12.6246C17.2269 12.7872 17.1364 12.9638 17.0471 13.1396C17.0137 13.2056 16.9958 13.2865 16.9962 13.3605C16.9984 13.7483 16.8104 14.039 16.5417 14.2952C16.481 14.3531 16.4366 14.4289 16.3879 14.4978C16.3413 14.5625 16.3063 14.637 16.2524 14.6941C16.0427 14.9162 15.8257 15.1316 15.6155 15.3534C15.5065 15.4679 15.3809 15.467 15.2459 15.4257C15.1178 15.3866 14.996 15.3972 14.8721 15.4474C14.7371 15.5028 14.5979 15.5492 14.4599 15.5964C14.2787 15.6586 14.1685 15.7833 14.0873 15.9548C14.0228 16.091 13.9263 16.2127 13.8336 16.334C13.8062 16.3702 13.7481 16.3911 13.6999 16.4017C13.2773 16.4975 12.8518 16.5626 12.4157 16.5592C12.2721 16.5584 12.129 16.6167 11.9842 16.6303C11.8769 16.6401 11.7663 16.6294 11.6595 16.6128C11.1887 16.5388 10.7192 16.4532 10.2621 16.3174C10.113 16.2732 9.96774 16.2093 9.8289 16.1391C9.58111 16.0135 9.33333 15.8858 9.09708 15.7399C8.89715 15.616 8.71131 15.4687 8.52505 15.3249C8.46823 15.281 8.43234 15.2108 8.38065 15.1593C8.29393 15.0724 8.20165 14.9912 8.11193 14.9065C8.09613 14.8916 8.07989 14.8762 8.06665 14.8584C7.94575 14.6945 7.82613 14.5293 7.70565 14.3655C7.7001 14.3578 7.69412 14.3463 7.68686 14.3446C7.52623 14.3118 7.50145 14.1539 7.41686 14.0522C7.34808 13.9696 7.28656 13.8811 7.22547 13.7921C7.1977 13.7508 7.17549 13.7053 7.15626 13.6593C7.10542 13.5397 7.06569 13.415 7.00716 13.3001C6.86747 13.0247 6.78758 12.7297 6.70043 12.4352C6.5744 12.0104 6.54407 11.5754 6.54193 11.1366C6.54193 11.091 6.58166 11.0442 6.60858 11.0012C6.6278 10.9706 6.6654 10.9493 6.68077 10.9174C6.81663 10.6394 6.85294 10.353 6.73674 10.0593C6.66753 9.88434 6.69359 9.71536 6.74956 9.54595C6.76921 9.48551 6.788 9.42337 6.81577 9.36634C6.9324 9.12883 7.04476 8.89005 7.1114 8.63253C7.12593 8.57635 7.15455 8.55464 7.21393 8.56571C7.2934 8.58018 7.37457 8.58529 7.45403 8.60061C7.51982 8.61296 7.54374 8.65467 7.54246 8.7249C7.53776 8.93133 7.54075 9.13777 7.54075 9.3442C7.55442 9.34463 7.56809 9.34505 7.58219 9.34548C7.58219 9.31143 7.58176 9.27653 7.58219 9.24247C7.58561 9.07988 7.59373 8.91644 7.59073 8.75384C7.58945 8.68319 7.62064 8.65509 7.68002 8.64232C7.72104 8.63381 7.7629 8.62189 7.80349 8.62487C7.91285 8.63339 7.97309 8.59423 7.96156 8.46441C8.09741 8.45675 8.22685 8.44951 8.37552 8.441V9.35016C8.38535 9.35016 8.39517 9.34974 8.405 9.34974V8.61295C8.52889 8.65254 8.65876 8.59763 8.75403 8.69766C8.85955 8.8079 8.98344 8.75171 9.10221 8.74363C9.18722 8.73767 9.27224 8.72149 9.35768 8.72149C9.41664 8.72149 9.43031 8.76874 9.42945 8.82322C9.42732 8.99858 9.4286 9.17352 9.4286 9.34888C9.43757 9.34974 9.44612 9.35059 9.45509 9.35101C9.45722 9.31994 9.46149 9.28844 9.46192 9.2578C9.46748 8.64743 9.47218 8.03664 9.47773 7.42627C9.47858 7.30369 9.55676 7.25346 9.68194 7.26794C9.78233 7.279 9.887 7.25261 9.98825 7.2607C10.1083 7.27049 10.2271 7.29688 10.3445 7.32455C10.3612 7.32838 10.374 7.38243 10.3744 7.41308C10.3787 7.68804 10.3796 7.963 10.3817 8.23754C10.3817 8.25584 10.3843 8.27457 10.386 8.29288C10.3928 8.29415 10.4026 8.295 10.4125 8.29585L10.415 8.29543ZM15.5933 10.7603C15.5894 10.7352 15.5813 10.6816 15.5723 10.6279C15.5531 10.5139 15.4625 10.4164 15.348 10.4032C15.3019 10.3981 15.2387 10.4087 15.2075 10.4372C15.1233 10.5143 15.0443 10.5998 14.9768 10.6922C14.8807 10.8237 14.9473 10.9829 15.1054 11.0161C15.1742 11.0302 15.2434 11.0438 15.313 11.051C15.4749 11.0672 15.5992 10.9501 15.5937 10.7607L15.5933 10.7603ZM15.1391 12.8898C15.1498 12.9323 15.1618 13.0013 15.1866 13.0651C15.1972 13.0937 15.2301 13.123 15.2596 13.1341C15.4087 13.192 15.5377 13.1243 15.5903 12.9711C15.6125 12.9059 15.6552 12.8464 15.6689 12.78C15.683 12.7123 15.6966 12.6297 15.6702 12.5718C15.6257 12.4752 15.46 12.4233 15.3574 12.4548C15.2429 12.4905 15.178 12.571 15.1639 12.6906C15.1571 12.7476 15.1498 12.8046 15.1391 12.8898ZM11.4284 12.9477C11.5283 12.9277 11.5907 12.8685 11.6279 12.7829C11.6629 12.7016 11.6894 12.6131 11.6091 12.545C11.539 12.4858 11.46 12.4356 11.3805 12.3896C11.31 12.3484 11.2374 12.3607 11.1755 12.4122C11.0999 12.4752 11.0247 12.539 10.9537 12.6071C10.8837 12.6744 10.8965 12.7927 10.9828 12.8221C11.1289 12.8715 11.2801 12.9068 11.4284 12.9481V12.9477ZM13.5661 12.2173C13.5696 12.5024 13.6443 12.5241 13.8421 12.5395C13.8579 12.5407 13.8737 12.5442 13.8895 12.5476C13.9489 12.5595 13.9904 12.5395 14.0297 12.491C14.104 12.399 14.1395 12.2935 14.1313 12.1798C14.1138 11.9249 14.022 11.8823 13.8144 11.9321C13.6388 11.9738 13.564 12.0606 13.5657 12.2168L13.5661 12.2173ZM13.8596 13.7019C13.6618 13.7147 13.5162 13.8198 13.3953 13.953C13.312 14.0454 13.3564 14.139 13.4726 14.182C13.5572 14.2131 13.6358 14.2599 13.7169 14.3012C13.7768 14.3314 13.825 14.3421 13.866 14.2676C13.9083 14.1918 13.9626 14.122 14.0151 14.0522C14.0626 13.9892 14.1117 13.9262 14.0673 13.8445C14.0216 13.7632 13.9536 13.7087 13.8596 13.7023V13.7019ZM7.88594 12.4556C7.98591 12.4692 8.09442 12.4467 8.1679 12.3475C8.22215 12.2747 8.21062 12.0879 8.1585 12.0181C8.08587 11.9202 7.96583 11.8865 7.82015 11.924C7.66806 11.9632 7.62107 12.0113 7.60398 12.1466C7.56809 12.4267 7.59031 12.4522 7.88594 12.4552V12.4556ZM9.3799 13.163C9.37776 13.1686 9.37605 13.1741 9.37392 13.1801C9.35469 13.1809 9.33419 13.1779 9.31624 13.1835C9.20175 13.2196 9.07145 13.2392 9.02617 13.3729C8.99242 13.4725 9.02403 13.5644 9.10862 13.6295C9.20431 13.7027 9.31752 13.7645 9.43501 13.7206C9.56146 13.6734 9.64989 13.5657 9.67211 13.4291C9.68108 13.375 9.66228 13.289 9.62384 13.2614C9.55548 13.2107 9.46278 13.1941 9.37947 13.1635L9.3799 13.163ZM12.6105 11.2736C12.7271 11.2945 12.7972 11.2285 12.842 11.1408C12.8758 11.0749 12.8997 10.9978 12.9052 10.9237C12.9172 10.7612 12.7933 10.6258 12.6382 10.6258C12.6088 10.6258 12.5575 10.6599 12.5528 10.6854C12.5391 10.7577 12.4994 10.799 12.4439 10.8429C12.2738 10.9791 12.279 11.1587 12.4528 11.2408C12.5003 11.2638 12.5579 11.2634 12.61 11.2736H12.6105ZM12.358 15.633C12.3063 15.6462 12.2345 15.6428 12.2102 15.6752C12.1384 15.7692 12.076 15.8744 12.0299 15.9829C12.0132 16.0229 12.0372 16.1063 12.0718 16.1331C12.1085 16.1617 12.1811 16.1574 12.2345 16.1493C12.3208 16.1365 12.4037 16.1016 12.49 16.0884C12.6212 16.068 12.6942 16.0059 12.7228 15.8761C12.7403 15.7965 12.7181 15.7318 12.6404 15.7054C12.5511 15.6747 12.4562 15.6573 12.358 15.633ZM10.0763 11.2826C10.0429 11.1838 10.007 11.0855 9.97628 10.9863C9.95364 10.9131 9.9011 10.8846 9.83231 10.888C9.76567 10.8914 9.69945 10.8986 9.67083 10.9804C9.65118 11.037 9.6123 11.0863 9.58496 11.14C9.46149 11.383 9.50635 11.463 9.76866 11.5282C9.91904 11.5656 10.066 11.446 10.0767 11.2826H10.0763ZM11.6232 14.4548C11.6275 14.4497 11.6313 14.4442 11.6356 14.4391C11.6719 14.4319 11.7129 14.4331 11.7437 14.4157C11.8829 14.3365 11.985 14.0726 11.941 13.9202C11.9086 13.8079 11.7731 13.7555 11.6826 13.8292C11.5993 13.8973 11.5228 13.9752 11.4523 14.0564C11.3771 14.1433 11.3587 14.2591 11.4181 14.3493C11.4549 14.4055 11.5531 14.4212 11.6236 14.4553L11.6232 14.4548ZM11.1934 10.3751C11.1806 10.3347 11.1584 10.2555 11.128 10.1793C11.1178 10.1533 11.0883 10.1184 11.0652 10.1159C10.9431 10.1027 10.8196 10.0908 10.6974 10.0933C10.6192 10.095 10.5949 10.1525 10.6081 10.23C10.6402 10.416 10.7641 10.5437 10.967 10.593C11.1208 10.6313 11.193 10.5747 11.1934 10.3751ZM10.1002 15.207C10.0997 15.0631 10.0041 14.9439 9.8635 14.9167C9.78917 14.9022 9.72551 14.9103 9.69133 14.9941C9.67638 15.0307 9.6469 15.0652 9.61572 15.0895C9.5196 15.1644 9.51661 15.2436 9.61785 15.3155C9.71868 15.387 9.83488 15.4066 9.95492 15.3853C10.0839 15.3623 10.1006 15.3368 10.1006 15.2065L10.1002 15.207ZM9.96261 15.8288C9.79686 15.785 9.63152 15.7624 9.48585 15.6973C9.34102 15.6322 9.21585 15.5236 9.08555 15.4372C9.08085 15.5389 9.14792 15.6177 9.32094 15.7028C9.56488 15.8229 9.88828 15.8897 9.96219 15.8288H9.96261ZM16.6967 13.3239C16.6861 13.3218 16.675 13.3201 16.6643 13.318C16.6587 13.3537 16.6532 13.3895 16.648 13.4252C16.6416 13.4691 16.648 13.5206 16.6263 13.5546C16.5207 13.7164 16.408 13.8734 16.2986 14.033C16.2849 14.0535 16.2802 14.0803 16.2712 14.1037C16.296 14.099 16.3225 14.0977 16.3456 14.0884C16.3622 14.0816 16.378 14.0667 16.3887 14.0509C16.4725 13.9236 16.5622 13.7994 16.6357 13.6661C16.6929 13.5619 16.7138 13.444 16.6976 13.3239H16.6967ZM6.94864 10.4151C7.00845 10.31 7.00076 10.2163 6.97 10.1325C6.91147 9.97117 6.91916 9.809 6.93667 9.64385C6.94351 9.57703 6.93796 9.50892 6.93796 9.41528C6.81406 9.76175 6.88669 10.078 6.94864 10.4155V10.4151ZM17.367 10.9331C17.379 10.9306 17.391 10.9276 17.4034 10.925C17.4034 10.8744 17.4025 10.8237 17.4034 10.7731C17.4055 10.6275 17.3948 10.4879 17.2867 10.3717C17.2654 10.3487 17.2701 10.301 17.2641 10.264C17.2568 10.2155 17.2513 10.167 17.2449 10.118C17.2308 10.1201 17.2171 10.1218 17.2026 10.124C17.209 10.2036 17.2009 10.2878 17.2248 10.3619C17.2854 10.5483 17.4055 10.7173 17.367 10.9327V10.9331Z" fill="black"/>
    <path d="M14.7499 16.4297C14.8948 16.4318 14.9448 16.4612 14.9418 16.5446C14.9388 16.6306 14.8486 16.731 14.7764 16.7285C14.6662 16.7251 14.6226 16.6817 14.6235 16.5778C14.6243 16.4497 14.6423 16.4288 14.7504 16.4301L14.7499 16.4297Z" fill="black"/>
    <path d="M14.706 16.0907C14.7008 16.0545 14.6936 16.0238 14.6923 15.9923C14.6884 15.8774 14.7465 15.8272 14.8572 15.8553C14.8905 15.8638 14.9285 15.8906 14.9439 15.9196C14.9516 15.934 14.9149 15.9736 14.8956 16C14.8871 16.0119 14.8687 16.017 14.8602 16.0294C14.8055 16.109 14.8059 16.1094 14.7055 16.0907H14.706Z" fill="black"/>
    <path d="M15.4531 15.8782C15.404 15.9178 15.3775 15.9544 15.3592 15.9506C15.331 15.945 15.3079 15.9114 15.2831 15.8901C15.3045 15.8663 15.3228 15.8284 15.3489 15.822C15.3694 15.8161 15.4006 15.8476 15.4536 15.8782H15.4531Z" fill="black"/>
</svg>
