<svg width="77" height="61" viewBox="0 0 77 61" fill="none" xmlns="http://www.w3.org/2000/svg">
<path d="M31.6985 27.2627V22.4715C32.276 22.377 32.7905 22.293 33.3329 22.2055C33.3539 22.419 33.3784 22.622 33.3994 22.8285C33.4239 22.8285 33.4484 22.8285 33.4729 22.8285C33.4799 22.699 33.4939 22.5695 33.4939 22.4435C33.4939 21.0436 33.4974 19.6437 33.4764 18.2437C33.4694 17.8693 33.6164 17.6418 33.9524 17.5788C34.4354 17.4913 34.9323 17.4668 35.4223 17.3898C35.5938 17.3618 35.7828 17.2988 35.9158 17.1938C36.1608 16.9978 36.2938 17.0118 36.4513 17.2883C36.5527 17.4703 36.6962 17.6278 36.7907 17.8168C36.8607 17.9533 36.9167 18.1177 36.9202 18.2682C36.9377 20.5711 36.9447 22.8775 36.9552 25.1803V25.5898C36.9867 25.5898 37.0217 25.5898 37.0532 25.5933V23.5424C37.6167 23.6789 38.1067 23.7839 38.5826 23.9344C38.6561 23.9589 38.7016 24.1899 38.7016 24.3229C38.7121 26.5907 38.7121 28.8551 38.7156 31.1195C38.7156 31.2595 38.7366 31.396 38.7471 31.5359C38.7926 31.5359 38.8416 31.5359 38.8871 31.5359V31.0425C38.8871 28.5226 38.8941 26.0028 38.8976 23.4829C38.8976 22.9335 38.8976 22.902 39.4541 22.8775C40.0805 22.8495 40.6895 22.545 41.3335 22.7445C41.5329 22.804 41.6204 22.671 41.6064 22.489C41.5854 22.2055 41.7394 22.1495 41.9774 22.1355C42.1314 22.1285 42.2819 22.076 42.5129 22.027C42.5689 22.216 42.6739 22.4225 42.6809 22.6325C42.7124 23.7139 42.7159 24.7953 42.7299 25.8768C42.7299 26.0098 42.7299 26.1428 42.7929 26.2758L42.9364 24.1899C42.9924 24.1864 43.0449 24.1794 43.0974 24.1724C43.1464 24.2879 43.1988 24.3999 43.2583 24.5364C43.3353 24.4839 43.4088 24.4349 43.5348 24.3509C43.5873 24.5504 43.6153 24.7219 43.6713 24.8828C43.8638 25.4323 44.0703 25.9748 44.2523 26.5312C44.3188 26.7307 44.3433 26.9512 44.3503 27.1612C44.3958 28.4981 44.4308 29.8315 44.4728 31.1685C44.4728 31.2875 44.4938 31.4065 44.5078 31.5254C44.5533 31.5254 44.5953 31.5254 44.6408 31.5254C44.6408 30.815 44.6653 30.108 44.6338 29.4011C44.6163 28.9706 44.8788 28.6661 45.1272 28.4631C45.5017 28.1586 45.6172 27.7947 45.7432 27.3817C45.8517 27.0247 46.0792 26.7027 46.2367 26.3563C46.3347 26.1463 46.4362 25.9258 46.4852 25.7018C46.5272 25.5233 46.4922 25.3273 46.4922 25.1383C46.5272 25.1243 46.5621 25.1138 46.6006 25.0998C46.6496 25.1838 46.7161 25.2643 46.7476 25.3588C46.8421 25.6388 46.8981 25.9363 47.0136 26.2058C47.1081 26.4332 47.2726 26.6292 47.3916 26.8462C47.4686 26.9897 47.5736 27.1437 47.5841 27.3012C47.6506 28.5576 47.6996 29.8175 47.7521 31.074C47.7556 31.207 47.7521 31.34 47.7521 31.4764C47.7871 31.4764 47.8221 31.4764 47.8571 31.4764V28.2531C48.2525 28.3476 48.557 28.4246 48.802 28.0117C48.9665 27.7282 49.6665 27.9102 49.7505 28.2391C49.859 28.6696 49.9219 29.1106 50.0444 29.5516C50.0444 29.0091 50.0444 28.4701 50.0444 27.9277C50.0444 27.3992 50.5624 27.1157 51.0524 27.3467C51.2379 27.4342 51.4654 27.4202 51.6963 27.4587C51.7103 27.6197 51.7278 27.7842 51.7418 27.9452C51.7558 28.1096 51.7663 28.2741 51.7803 28.4701C52.0918 28.5086 52.3858 28.5471 52.7358 28.5926V31.4904H52.8373C52.8373 31.0285 52.8268 30.5665 52.8373 30.1045C52.8758 28.6906 52.8128 28.9531 54.0867 28.9671C54.3877 28.9671 54.5382 29.1001 54.5242 29.4396C54.5032 29.9855 54.5242 30.535 54.5382 31.081C54.5382 31.214 54.5592 31.347 54.5697 31.4764C54.6047 31.4764 54.6397 31.4764 54.6747 31.4764C54.6747 30.9165 54.6817 30.3565 54.6747 29.8C54.6642 29.2996 54.6572 28.7991 54.9092 28.3511C54.9966 28.1971 55.1716 28.0852 55.3151 27.9697C55.6406 27.7107 56.0991 27.5707 56.0536 27.0142C56.0536 26.9582 56.2636 26.8567 56.3861 26.8357C56.4876 26.8182 56.6031 26.8882 56.729 26.9267C56.729 26.9267 56.757 26.9582 56.75 26.9722C56.5681 27.3397 56.743 27.5427 57.0615 27.7037C57.7965 28.0677 58.0485 28.7326 58.101 29.4851C58.143 30.0275 58.122 30.577 58.129 31.123C58.129 31.2455 58.129 31.368 58.129 31.4904C58.164 31.4904 58.1955 31.4904 58.234 31.4904V29.6426C58.269 29.6356 58.3074 29.6251 58.3424 29.6146C58.3879 29.7021 58.4404 29.7931 58.4789 29.8805C58.8919 30.7905 59.0739 31.7599 59.2384 32.7434C59.4414 33.9578 59.7214 35.1582 59.9629 36.3692C59.9979 36.5406 60.0224 36.7191 60.0224 36.8976C60.0258 38.399 60.1063 39.9074 59.9978 41.4019C59.9209 42.4693 59.8089 43.5682 59.1649 44.5237C58.7274 45.1711 58.3669 45.8746 58.0135 46.5746C57.8805 46.837 57.8105 47.159 57.814 47.453C57.821 48.9964 57.079 50.1548 56.0116 51.1733C55.7701 51.4043 55.5951 51.7052 55.4026 51.9782C55.2171 52.2372 55.0771 52.5312 54.8672 52.7587C54.0342 53.6441 53.1733 54.5016 52.3403 55.3835C51.9098 55.8385 51.4094 55.835 50.8739 55.6705C50.3664 55.5165 49.8835 55.555 49.39 55.758C48.8545 55.9785 48.3015 56.164 47.7556 56.353C47.0381 56.6015 46.6006 57.0949 46.2787 57.7809C46.0232 58.3234 45.6382 58.8063 45.2742 59.2893C45.1657 59.4328 44.9347 59.5168 44.7423 59.5588C43.0659 59.9403 41.379 60.1992 39.6501 60.1852C39.0796 60.1852 38.5126 60.4127 37.9387 60.4687C37.5152 60.5072 37.0742 60.4687 36.6507 60.3987C34.7819 60.1047 32.92 59.7618 31.1071 59.2228C30.5156 59.0478 29.9381 58.7923 29.3887 58.5123C28.4052 58.0119 27.4218 57.5044 26.4873 56.9234C25.6929 56.43 24.9579 55.8455 24.216 55.2715C23.992 55.0965 23.8485 54.8166 23.642 54.6101C23.299 54.2636 22.9316 53.9416 22.5746 53.6056C22.5116 53.5461 22.4451 53.4831 22.3961 53.4131C21.9166 52.7587 21.4406 52.1042 20.9647 51.4498C20.9437 51.4183 20.9192 51.3728 20.8912 51.3658C20.2542 51.2328 20.1562 50.6063 19.8202 50.2003C19.5473 49.8714 19.3023 49.5179 19.0608 49.1644C18.9488 48.9999 18.8613 48.8179 18.7878 48.6359C18.5883 48.16 18.4273 47.663 18.1963 47.2045C17.6434 46.1091 17.3249 44.9331 16.9784 43.7607C16.4779 42.0703 16.3589 40.3379 16.3484 38.5915C16.3484 38.4095 16.5059 38.224 16.6144 38.0526C16.6914 37.9301 16.8384 37.8461 16.9014 37.7166C17.4404 36.6106 17.5839 35.4697 17.1219 34.3008C16.8489 33.6043 16.9504 32.9324 17.1744 32.2569C17.2514 32.0154 17.3249 31.7704 17.4369 31.5429C17.8989 30.598 18.3468 29.6461 18.6093 28.6206C18.6688 28.3966 18.7808 28.3091 19.0153 28.3546C19.3303 28.4141 19.6523 28.4316 19.9672 28.4911C20.2297 28.5401 20.3242 28.7046 20.3172 28.9846C20.2997 29.807 20.3102 30.6295 20.3102 31.4519C20.3662 31.4519 20.4187 31.452 20.4747 31.4555C20.4747 31.319 20.4747 31.1825 20.4747 31.046C20.4887 30.3985 20.5202 29.7476 20.5097 29.1001C20.5062 28.8201 20.6287 28.7046 20.8632 28.6556C21.0242 28.6206 21.1922 28.5751 21.3531 28.5856C21.7871 28.6206 22.0251 28.4631 21.9796 27.9452C22.5186 27.9137 23.0331 27.8857 23.621 27.8507V31.4694C23.6595 31.4694 23.698 31.4694 23.74 31.4694V28.5366C24.23 28.6941 24.7445 28.4736 25.1259 28.8726C25.5424 29.3101 26.0359 29.0861 26.5083 29.0546C26.8443 29.0301 27.1838 28.9671 27.5198 28.9671C27.7543 28.9671 27.8068 29.1561 27.8033 29.3731C27.7963 30.0695 27.8033 30.7695 27.8033 31.466C27.8383 31.466 27.8733 31.4729 27.9083 31.4729C27.9153 31.347 27.9328 31.2245 27.9363 31.102C27.9573 28.6731 27.9783 26.2408 27.9993 23.8119C27.9993 23.3254 28.3142 23.1259 28.8077 23.1819C29.2067 23.2274 29.6197 23.1189 30.0221 23.1539C30.4981 23.1924 30.9706 23.2974 31.4361 23.4094C31.5025 23.4234 31.555 23.6404 31.555 23.7629C31.5725 24.8583 31.576 25.9538 31.583 27.0457C31.583 27.1192 31.5935 27.1927 31.6005 27.2662C31.6285 27.2697 31.667 27.2732 31.7055 27.2767L31.6985 27.2627ZM52.2388 37.0761C52.2248 36.9746 52.1898 36.7611 52.1548 36.5476C52.0778 36.0927 51.7208 35.7042 51.2659 35.6517C51.0839 35.6307 50.8319 35.6727 50.7094 35.7882C50.3734 36.0962 50.0619 36.4357 49.7925 36.8031C49.411 37.3281 49.6735 37.9616 50.3034 38.0911C50.5764 38.1471 50.8494 38.203 51.1259 38.2275C51.7698 38.294 52.2633 37.8251 52.2388 37.0726V37.0761ZM50.4364 45.5561C50.4784 45.7241 50.5274 46.0006 50.6254 46.2526C50.6674 46.3681 50.7969 46.4836 50.9159 46.5256C51.5074 46.7565 52.0183 46.4871 52.2283 45.8746C52.3158 45.6156 52.4873 45.3776 52.5398 45.1151C52.5958 44.8457 52.6518 44.5167 52.5433 44.2857C52.3683 43.9007 51.7103 43.6942 51.3044 43.8202C50.8494 43.9602 50.5939 44.2822 50.5379 44.7582C50.5099 44.9856 50.4819 45.2131 50.4399 45.5526L50.4364 45.5561ZM35.7163 45.7871C36.1153 45.7066 36.3603 45.4721 36.5072 45.1291C36.6437 44.8037 36.7522 44.4537 36.4338 44.1807C36.1573 43.9462 35.8423 43.7467 35.5273 43.5612C35.2473 43.3967 34.9603 43.4457 34.7154 43.6522C34.4144 43.9042 34.1169 44.1562 33.8369 44.4292C33.5604 44.6952 33.6094 45.1676 33.9524 45.2866C34.5334 45.4826 35.1318 45.6226 35.7198 45.7871H35.7163ZM44.1963 42.8788C44.2103 44.0162 44.5078 44.1002 45.2917 44.1597C45.3547 44.1632 45.4177 44.1772 45.4807 44.1912C45.7152 44.2402 45.8832 44.1597 46.0372 43.9672C46.3312 43.5997 46.4712 43.1798 46.4397 42.7283C46.3697 41.7133 46.0057 41.5419 45.1832 41.7413C44.4868 41.9058 44.1893 42.2523 44.1963 42.8753V42.8788ZM45.3582 48.7899C44.5743 48.8424 43.9968 49.2589 43.5173 49.7909C43.1849 50.1583 43.3633 50.5293 43.8253 50.7043C44.1613 50.8303 44.4728 51.0158 44.7948 51.1768C45.0327 51.2993 45.2217 51.3378 45.3862 51.0438C45.5542 50.7428 45.7712 50.4628 45.9777 50.1863C46.1667 49.9344 46.3627 49.6859 46.1842 49.3604C46.0022 49.0349 45.7327 48.8214 45.3617 48.7934L45.3582 48.7899ZM21.6611 43.8272C22.0601 43.8832 22.4871 43.7922 22.7811 43.3967C22.9946 43.1063 22.9491 42.3643 22.7426 42.0843C22.4556 41.6923 21.9796 41.5593 21.4021 41.7098C20.8002 41.8638 20.6112 42.0563 20.5447 42.5953C20.4047 43.7117 20.4887 43.8132 21.6646 43.8237L21.6611 43.8272ZM27.5863 46.6445C27.5793 46.6655 27.5723 46.69 27.5618 46.711C27.4848 46.711 27.4043 46.704 27.3343 46.725C26.8793 46.8685 26.3649 46.9455 26.1829 47.4775C26.0499 47.8765 26.1759 48.2405 26.5118 48.4994C26.8933 48.7899 27.3413 49.0349 27.8068 48.8634C28.3072 48.6744 28.6607 48.2475 28.7482 47.7015C28.7832 47.488 28.7097 47.145 28.5557 47.033C28.2862 46.8335 27.9153 46.767 27.5863 46.6411V46.6445ZM40.4025 39.12C40.8645 39.204 41.141 38.9415 41.323 38.5915C41.456 38.329 41.5504 38.0211 41.5749 37.7271C41.6239 37.0796 41.1305 36.5406 40.5145 36.5406C40.3955 36.5406 40.1925 36.6771 40.175 36.7786C40.119 37.0656 39.965 37.2301 39.7446 37.4051C39.0691 37.9476 39.0901 38.6615 39.7796 38.9905C39.9685 39.0815 40.196 39.0815 40.4025 39.1235V39.12ZM39.4016 56.479C39.1986 56.5315 38.9116 56.5175 38.8136 56.647C38.5301 57.0214 38.2816 57.4414 38.0997 57.8719C38.0332 58.0294 38.1277 58.3619 38.2641 58.4703C38.4076 58.5858 38.6981 58.5683 38.9116 58.5368C39.2546 58.4843 39.5836 58.3479 39.923 58.2954C40.4445 58.2149 40.7315 57.9664 40.847 57.4484C40.917 57.1299 40.8295 56.8744 40.518 56.7694C40.1645 56.6469 39.7866 56.577 39.3981 56.4825L39.4016 56.479ZM30.3511 39.155C30.2181 38.7595 30.0781 38.371 29.9521 37.9756C29.8611 37.6851 29.6547 37.5696 29.3817 37.5836C29.1157 37.5976 28.8532 37.6256 28.7412 37.9511C28.6642 38.1751 28.5102 38.371 28.4017 38.588C27.9118 39.554 28.0902 39.8725 29.1297 40.1314C29.7282 40.2784 30.3091 39.8025 30.3511 39.155ZM36.4897 51.7857C36.5072 51.7647 36.5212 51.7437 36.5387 51.7227C36.6822 51.6947 36.8467 51.6982 36.9657 51.6283C37.5187 51.3133 37.9247 50.2633 37.7497 49.6544C37.6202 49.2064 37.0812 48.9964 36.7242 49.2904C36.3918 49.5599 36.0908 49.8714 35.8108 50.1968C35.5133 50.5433 35.4398 51.0018 35.6743 51.3623C35.8178 51.5863 36.2098 51.6493 36.4897 51.7822V51.7857ZM34.7854 35.5397C34.7329 35.3787 34.6489 35.0637 34.5264 34.7593C34.4844 34.6543 34.3689 34.5178 34.2779 34.5073C33.7949 34.4548 33.3049 34.4058 32.8185 34.4163C32.507 34.4233 32.4125 34.6508 32.465 34.9587C32.5945 35.6972 33.0845 36.2082 33.8894 36.4042C34.4984 36.5546 34.7854 36.3307 34.7889 35.5362L34.7854 35.5397ZM30.4491 54.7781C30.4491 54.2041 30.0676 53.7316 29.5112 53.6231C29.2172 53.5636 28.9652 53.5986 28.8287 53.9311C28.7692 54.0746 28.6537 54.2146 28.5277 54.3126C28.1462 54.6101 28.1322 54.9251 28.5347 55.212C28.9372 55.4955 29.3957 55.576 29.8716 55.4885C30.3826 55.3975 30.4491 55.296 30.4491 54.7781ZM29.9031 57.2524C29.2452 57.0774 28.5907 56.9864 28.0133 56.7274C27.4393 56.4685 26.9423 56.038 26.4243 55.6915C26.4069 56.0975 26.6728 56.409 27.3588 56.7484C28.3247 57.2244 29.6092 57.4904 29.9031 57.2489V57.2524ZM56.6171 47.2815C56.5751 47.2745 56.5296 47.2675 56.4876 47.257C56.4666 47.397 56.4421 47.5405 56.4211 47.684C56.3966 47.859 56.4211 48.0655 56.3336 48.1985C55.9171 48.8424 55.4656 49.4689 55.0351 50.1023C54.9791 50.1828 54.9617 50.2913 54.9267 50.3823C55.0246 50.3648 55.1296 50.3578 55.2206 50.3193C55.2871 50.2913 55.3501 50.2318 55.3921 50.1723C55.7246 49.6649 56.0781 49.1714 56.3721 48.6394C56.5996 48.2265 56.6836 47.754 56.6171 47.278V47.2815ZM17.9479 35.7007C18.1858 35.2842 18.1543 34.9097 18.0318 34.5738C17.8009 33.9298 17.8324 33.2858 17.8989 32.6279C17.9269 32.3619 17.9024 32.0924 17.9024 31.7179C17.4124 33.0969 17.6994 34.3568 17.9444 35.7007H17.9479ZM59.2804 37.7621C59.3294 37.7516 59.3749 37.7411 59.4239 37.7306C59.4239 37.5311 59.4239 37.3281 59.4239 37.1251C59.4309 36.5441 59.3889 35.9877 58.9619 35.5257C58.8779 35.4347 58.8954 35.2457 58.8709 35.0987C58.8429 34.9062 58.8184 34.7103 58.7939 34.5178C58.7379 34.5248 58.6819 34.5318 58.6259 34.5423C58.6504 34.8607 58.6189 35.1967 58.7134 35.4907C58.9549 36.2327 59.4309 36.9046 59.2769 37.7656L59.2804 37.7621Z" fill="black"/>
<path d="M51.2589 2.7296C50.6639 2.86259 50.0689 2.99559 49.4355 3.13558C49.4215 3.11458 49.362 3.05158 49.32 2.97459C48.8615 2.07514 49.0155 1.78466 50.0024 1.66567C51.1609 1.52567 52.3193 1.55017 53.4357 1.90015C53.9327 2.05414 54.4437 2.28513 54.8531 2.60361C56.0991 3.58005 55.6266 5.23545 54.5592 5.93891C54.3072 6.1034 54.0237 6.21539 53.7367 6.35889C54.0762 6.80336 54.3632 7.32133 54.2442 7.90579C54.1567 8.33627 53.9747 8.79474 53.7052 9.13422C53.0438 9.97067 52.1023 10.3661 51.0664 10.5026C49.8064 10.6671 48.627 10.4956 47.6961 9.5157C47.6086 9.4247 47.5211 9.32671 47.4511 9.22522C47.0766 8.69325 47.0766 8.59525 47.4511 8.04929C48.2735 6.85936 49.082 5.65893 49.9254 4.4865C50.3419 3.90553 50.8284 3.37706 51.2834 2.8241C51.2729 2.7926 51.2659 2.7576 51.2554 2.7261L51.2589 2.7296ZM48.417 8.91023C49.649 9.80618 52.1688 9.5437 53.0997 8.49026C53.4217 8.12628 53.6247 7.71331 53.5862 7.21284C53.5442 6.67387 53.2957 6.48838 52.7638 6.49188C51.9518 6.49538 51.1119 6.55837 50.4154 5.88641C49.7469 6.90135 49.0855 7.8988 48.417 8.91374V8.91023ZM50.9544 5.15496C51.4058 5.23895 51.7628 5.27045 52.0988 5.37194C52.9528 5.63093 53.7507 5.50144 54.5137 5.08146C54.9231 4.85398 55.1436 4.49 55.1226 4.01752C55.1051 3.56605 54.8391 3.24407 54.4297 3.09708C53.9222 2.91509 53.3937 2.8031 52.9493 2.68061C52.2528 3.54155 51.6228 4.31851 50.9509 5.15146L50.9544 5.15496Z" fill="black"/>
<path d="M0.312378 13.7998C0.812848 13.3449 1.28882 12.9564 1.71579 12.5154C2.51725 11.686 3.2802 10.8215 4.06415 9.97456C4.61012 9.3831 5.09309 9.4041 5.62856 10.0096C5.11759 10.4995 4.61012 10.993 4.09565 11.483C3.91366 11.658 3.87167 11.8365 3.95916 12.0884C4.82361 14.6468 5.84205 17.1316 7.23497 19.4555C7.25947 19.4975 7.28046 19.543 7.30146 19.585C6.91998 19.907 6.20253 20.0085 5.82805 19.788C5.74056 19.7355 5.67756 19.6235 5.63556 19.522C4.9706 17.9261 4.30914 16.3302 3.64768 14.7343C3.40969 14.1603 3.16821 13.5898 2.91272 12.9774C2.83223 13.0334 2.77273 13.0579 2.73073 13.1034C2.44725 13.4079 2.13927 13.6983 1.88728 14.0273C1.47431 14.5768 0.539864 14.6083 0.312378 13.7998Z" fill="black"/>
<path d="M27.8312 0.979941C28.4752 0.787453 29.0667 0.612463 29.6896 0.423474C30.0571 1.94238 30.5331 3.3633 31.2645 4.77022C32.2795 3.2968 32.9059 1.7184 33.4064 0C33.7599 0.0944944 34.0994 0.185488 34.4843 0.290482C33.9489 1.21093 33.4484 2.03338 32.9794 2.87333C32.5525 3.63628 32.08 4.39224 31.7755 5.20419C31.5445 5.82015 31.5025 6.52011 31.4605 7.18507C31.408 7.97952 31.45 8.78098 31.45 9.64893C30.8061 9.59293 30.2461 9.54743 29.6651 9.49843C29.8226 8.78098 29.9661 8.13351 30.1061 7.48255C30.1551 7.25857 30.1656 7.02408 30.2321 6.81059C30.4876 5.98114 30.3196 5.24619 29.9031 4.49023C29.2592 3.3283 28.7447 2.08938 27.8347 0.986941L27.8312 0.979941Z" fill="black"/>
<path d="M41.6379 3.36302C40.693 4.74894 39.902 6.17686 39.6185 7.82176C39.664 7.85326 39.706 7.88475 39.7515 7.91625C39.9685 7.69227 40.2135 7.48228 40.406 7.2373C41.106 6.33435 41.8584 5.4699 42.2364 4.36047C42.2959 4.18198 42.4079 4.02099 42.5164 3.8635C42.8769 3.32803 43.0903 3.27553 43.6783 3.56951C43.7553 3.60801 43.8358 3.65351 43.9093 3.69901C43.9303 3.70951 43.9443 3.734 44.0003 3.797C43.7798 4.23797 43.5383 4.69295 43.3248 5.16192C43.0658 5.72539 42.8069 6.29235 42.5934 6.87682C42.3834 7.45778 42.4359 8.05275 42.6984 8.62321C41.8759 8.74221 41.2635 8.06675 41.218 6.94681C41.0185 7.1708 40.8645 7.34229 40.7175 7.51728C40.5145 7.76226 40.3185 8.00725 40.1225 8.25923C39.874 8.57421 39.587 8.69671 39.1916 8.52522C38.7366 8.32573 38.4041 7.92675 38.4216 7.53478C38.4671 6.53034 38.8486 5.62739 39.3106 4.76644C39.5835 4.25547 39.923 3.776 40.294 3.33153C40.6965 2.84506 41.169 2.88355 41.6379 3.37002V3.36302Z" fill="black"/>
<path d="M18.3083 7.36676C17.1428 8.55669 16.8454 9.94961 17.0833 11.5C17.0973 11.5875 17.1148 11.6785 17.1568 11.7555C17.2023 11.836 17.2723 11.9515 17.3423 11.9585C17.4123 11.969 17.5383 11.885 17.5698 11.8115C17.7308 11.4265 17.9338 11.045 18.0038 10.6426C18.1928 9.55413 18.3468 8.45869 18.4553 7.36326C18.4973 6.93978 18.7177 6.95028 19.0117 6.94328C19.3372 6.93628 19.4562 7.05878 19.4387 7.39826C19.3862 8.4272 19.3862 9.46313 19.6977 10.4606C19.7992 10.7826 20.0162 11.066 20.1772 11.3705C20.2122 11.3565 20.2472 11.3425 20.2857 11.3285C20.2192 11.402 20.1632 11.4825 20.0897 11.549C19.5577 12.032 19.0712 11.9235 18.8332 11.248C18.7142 10.9155 18.6547 10.5621 18.5743 10.2436C18.4413 10.7056 18.3223 11.206 18.1578 11.689C18.0668 11.9585 17.9268 12.228 17.7553 12.4625C17.4508 12.8859 16.9608 12.9069 16.5689 12.5604C16.1559 12.193 15.9634 11.71 15.8864 11.1885C15.7114 9.9881 15.8549 8.83317 16.4254 7.74824C16.5199 7.56975 16.6424 7.40876 16.7649 7.24777C17.0448 6.88729 17.2793 6.82429 17.6923 7.01678C17.9058 7.11827 18.1018 7.25477 18.3013 7.37376L18.3083 7.36676Z" fill="black"/>
<path d="M59.6479 7.81501C59.8158 7.9935 60.0118 8.19998 60.2008 8.39597C59.2874 9.6314 57.996 10.5658 57.968 12.2737C57.66 12.3192 57.3205 12.3332 57.0475 12.0253C56.785 11.7313 56.918 11.4198 57.03 11.1293C57.1385 10.8493 57.303 10.5903 57.4815 10.2509C57.156 10.4713 56.897 10.6848 56.61 10.8388C56.2461 11.0348 55.8681 11.2308 55.4726 11.3463C54.9511 11.5003 54.6152 11.2658 54.4927 10.7268C54.3492 10.0969 54.5767 9.53341 54.9196 9.03994C55.5391 8.15449 56.2986 7.41253 57.3275 6.99956C57.492 6.93306 57.66 6.87706 57.8315 6.84206C58.6399 6.68807 59.0844 7.08355 59.0739 7.983C58.2619 7.948 57.5445 8.24898 56.897 8.71095C56.3126 9.12393 55.7876 9.5999 55.4936 10.2789C55.4376 10.4084 55.4376 10.5623 55.4131 10.7023C55.5671 10.7023 55.7421 10.7408 55.8751 10.6848C56.1656 10.5623 56.463 10.4294 56.7045 10.2369C57.6635 9.47391 58.6014 8.68295 59.6479 7.81851V7.81501Z" fill="black"/>
<path d="M37.8057 4.93874C37.7252 6.61164 37.0567 7.84006 35.6393 8.62052C34.7469 9.11049 33.8684 8.72201 33.5674 7.73157C33.3469 7.00361 33.4344 6.29316 33.6794 5.5967C34.0154 4.63075 34.5439 3.7908 35.4153 3.20284C35.9718 2.82836 36.2553 2.85986 36.6823 3.37783C36.8257 3.55282 36.9762 3.62981 37.2037 3.68931C37.3927 3.73831 37.5957 3.95879 37.6762 4.15478C37.7847 4.41727 37.7777 4.72525 37.8127 4.93874H37.8057ZM36.7767 3.9273C36.4933 4.10229 36.2588 4.21078 36.0733 4.37177C35.1528 5.15572 34.7294 6.19866 34.5929 7.36759C34.5649 7.61958 34.6559 7.89256 34.7259 8.14455C34.7819 8.34753 34.9219 8.40703 35.1353 8.30204C35.7023 8.02555 36.1468 7.63358 36.4373 7.07011C36.9412 6.09717 37.0777 5.08223 36.7802 3.9273H36.7767Z" fill="black"/>
<path d="M69.7692 17.6813C69.1148 17.7583 68.4673 17.8773 67.8198 17.9018C66.3919 17.9578 66.014 16.3374 66.4689 15.515C67.2074 14.1781 69.1568 13.1876 70.6722 13.4466C70.9662 13.4956 71.2811 13.6531 71.5016 13.8526C71.9531 14.2656 71.9321 14.794 71.5226 15.2455C70.9452 15.8825 70.2312 16.2289 69.3668 16.2009C68.8873 16.1869 68.4043 16.1169 67.9283 16.0434C67.5399 15.984 67.3579 16.0924 67.2004 16.5509C67.0709 16.9324 67.1584 17.1879 67.5049 17.3314C68.1383 17.5974 68.7788 17.4749 69.4158 17.3419C69.6082 17.3034 69.7867 17.2649 69.7657 17.6778L69.7692 17.6813ZM70.9382 14.752C70.2172 14.3286 68.3903 14.885 67.9983 15.634C69.0798 15.6795 70.1402 15.676 70.9382 14.752Z" fill="black"/>
<path d="M15.26 11.7942C15.225 12.6971 14.98 13.4671 14.5076 14.1461C14.0701 14.776 13.0482 14.888 12.4497 14.3735C12.2257 14.1811 12.0017 13.9396 11.8862 13.6736C11.2178 12.1442 11.2773 10.6358 12.1382 9.19385C12.5057 8.58138 13.0517 8.3889 13.6606 8.63038C13.8111 8.68988 13.9651 8.85087 14.0316 9.00486C14.4901 10.0583 14.3361 11.0627 13.7411 12.0147C13.5451 12.3262 13.3351 12.6271 13.1217 12.9281C12.9082 13.2326 12.9712 13.4986 13.3526 13.8626C13.6081 14.1076 13.9056 14.0866 14.0841 13.8381C14.3851 13.4111 14.6196 12.9351 14.8646 12.4697C14.9381 12.3297 14.9311 12.1407 15.001 12.0007C15.043 11.9132 15.1725 11.8677 15.26 11.8012V11.7942ZM12.7682 12.6586C13.5311 11.7032 13.8251 10.0758 13.3316 9.48783C12.5757 10.4328 12.5722 11.4862 12.7682 12.6586Z" fill="black"/>
<path d="M21.3146 6.44648C20.8667 6.51414 20.568 6.34849 20.4187 5.94951C20.6742 5.87952 20.9332 5.83052 21.1677 5.72902C21.2901 5.67653 21.4196 5.54353 21.4581 5.41754C21.6121 4.92057 21.7171 4.4096 21.8676 3.91263C22.0531 3.31067 22.1266 3.26867 22.7671 3.28617C22.9525 3.28967 23.138 3.33167 23.362 3.35616C23.1765 3.99313 22.998 4.59509 22.8266 5.19006C23.194 5.35455 23.5335 4.74208 23.922 5.28805C23.593 5.46304 23.2955 5.63803 22.9805 5.77802C22.7811 5.86551 22.6586 5.96001 22.6271 6.2015C22.4626 7.36343 22.3716 8.52536 22.5921 9.69079C22.6201 9.83778 22.6656 9.98477 22.7251 10.1248C22.8406 10.3907 23.0505 10.4537 23.278 10.2928C23.5335 10.1143 23.754 9.89028 23.999 9.69079C24.048 9.65229 24.125 9.64179 24.1845 9.62079C24.1915 9.68729 24.2265 9.75728 24.209 9.81678C23.9045 10.7967 23.04 11.1887 22.1056 10.7897C21.6716 10.6042 21.3846 10.3068 21.3706 9.82028C21.3356 8.79484 21.3216 7.7659 21.3007 6.74046C21.3007 6.65647 21.3111 6.56897 21.3181 6.44648H21.3146Z" fill="black"/>
<path d="M69.2443 10.6501C68.6528 10.9651 68.1243 11.2521 67.5014 11.5846C67.7814 11.7281 67.9774 11.8051 68.1488 11.9206C68.2328 11.9801 68.2608 12.113 68.3168 12.211C68.2118 12.246 68.0998 12.33 68.0088 12.309C67.7884 12.2635 67.5434 12.2145 67.3649 12.0885C67.0394 11.8646 66.8224 11.9976 66.5669 12.2005C65.7515 12.848 64.9535 13.5095 64.3586 14.3809C64.2746 14.5069 64.1836 14.6329 64.1206 14.7729C63.9596 15.1264 64.0751 15.3784 64.4496 15.4553C64.7715 15.5183 65.1005 15.5393 65.5555 15.5953C65.363 15.7108 65.265 15.8053 65.146 15.8403C64.1066 16.1203 63.4346 15.7283 63.1336 14.6889C63.0391 14.3599 63.0426 14.0519 63.2841 13.7964C64.0366 12.9915 64.796 12.1935 65.5555 11.3956C65.5975 11.3501 65.6675 11.3326 65.741 11.2941C65.321 11.0071 65.2113 10.6653 65.412 10.2687C65.6955 10.4541 65.9755 10.6361 66.245 10.8111C66.7664 10.5171 67.2774 10.2092 67.8059 9.93968C68.3798 9.64919 68.4043 9.66319 68.8488 10.1357C68.9853 10.2827 69.0973 10.4541 69.2513 10.6536L69.2443 10.6501Z" fill="black"/>
<path d="M61.8492 9.3197C61.2753 8.91372 61.2648 8.88923 61.5097 8.34676C61.8212 8.50425 62.1292 8.66524 62.3812 8.79473C62.9832 8.39925 63.5571 8.03178 64.1206 7.6538C64.3516 7.49981 64.5511 7.53481 64.7366 7.71679C64.95 7.92678 65.153 8.14377 65.3735 8.37126C64.81 8.74223 64.2956 9.07822 63.7076 9.46319C63.9806 9.57519 64.1801 9.63818 64.3586 9.74317C64.4531 9.79917 64.5056 9.93216 64.5756 10.0302C64.4741 10.0687 64.3691 10.1527 64.2711 10.1422C64.0471 10.1177 63.8056 10.0827 63.6096 9.98466C63.3121 9.83417 63.1196 9.90767 62.8852 10.1247C62.0662 10.8841 61.2753 11.6681 60.7363 12.6655C60.3933 13.299 60.4948 13.516 61.2088 13.6069C61.4642 13.6384 61.7267 13.6104 61.9892 13.6104C61.9892 13.6804 62.0032 13.7329 61.9892 13.7504C61.6567 14.1004 60.5648 14.1599 60.2288 13.8169C60.0083 13.5964 59.8088 13.3375 59.6619 13.0645C59.4624 12.6935 59.4659 12.298 59.7353 11.9515C60.3583 11.1536 60.9953 10.3626 61.6252 9.57169C61.6952 9.48069 61.7757 9.40019 61.8492 9.3162V9.3197Z" fill="black"/>
<path d="M8.38993 11.5952C8.47742 12.3231 8.56142 12.9986 8.64191 13.6705C8.70141 13.6705 8.7574 13.6705 8.8169 13.674C8.91839 12.8551 9.01289 12.0361 9.13538 11.2207C9.15988 11.0562 9.25087 10.8567 9.37687 10.7622C9.61135 10.5907 9.78634 10.6012 9.93683 10.9582C10.1223 11.4027 10.4723 11.7736 10.6928 12.2076C10.7943 12.4071 10.7803 12.6801 10.7558 12.9111C10.7488 12.9741 10.4828 13.0616 10.3533 13.0371C10.0593 12.9846 9.77234 12.8726 9.45386 12.7746C8.7364 14.2585 9.06188 15.7389 9.66385 17.1948C9.07238 17.5658 8.55092 17.4153 8.37593 16.7993C7.97695 15.4099 7.58147 14.017 7.24899 12.6101C7.04951 11.7631 7.24899 11.5917 8.14494 11.5917H8.39342L8.38993 11.5952Z" fill="black"/>
<path d="M73.9725 19.9982V18.6893C72.3591 18.3078 71.0712 19.0393 69.7728 20.0297C69.6783 19.6902 69.5663 19.3997 69.5278 19.0952C69.5138 18.9728 69.6433 18.7908 69.7553 18.7033C71.0187 17.7828 72.3521 16.9744 73.78 16.3374C74.291 16.1099 74.3925 16.1589 74.613 16.6734C74.704 16.8904 74.7635 17.1249 74.83 17.3244C74.1755 17.5868 73.563 17.8318 72.9506 18.0768C72.9611 18.1328 72.9751 18.1853 72.9856 18.2413C73.6645 18.1748 74.347 18.1013 75.0294 18.0383C75.3024 18.0138 75.5859 17.8143 75.8484 18.0978C76.0934 18.3603 76.0934 18.5073 75.7994 18.7068C75.3969 18.9798 75.0889 19.3262 74.8265 19.7497C74.7005 19.9492 74.347 20.0052 74.095 20.1242C74.053 20.0787 74.011 20.0367 73.969 19.9947L73.9725 19.9982Z" fill="black"/>
<path d="M48.893 59.6498C49.467 59.6568 49.6665 59.7758 49.6525 60.1083C49.642 60.4513 49.2815 60.8502 48.9945 60.8397C48.557 60.8257 48.3855 60.6542 48.389 60.2378C48.389 59.7268 48.4625 59.6428 48.893 59.6498Z" fill="black"/>
<path d="M48.718 58.3034C48.697 58.1599 48.669 58.0374 48.662 57.9114C48.648 57.453 48.8755 57.2535 49.3165 57.3655C49.4494 57.4005 49.5999 57.5055 49.6594 57.621C49.6909 57.6805 49.5439 57.8344 49.4669 57.9429C49.4319 57.9919 49.3584 58.0094 49.3269 58.0619C49.11 58.3804 49.1135 58.3804 48.7145 58.3069L48.718 58.3034Z" fill="black"/>
<path d="M51.6823 57.4527C51.4863 57.6101 51.3813 57.7571 51.3078 57.7396C51.1958 57.7186 51.1048 57.5856 51.0068 57.4981C51.0908 57.4037 51.1643 57.2532 51.2693 57.2287C51.3498 57.2042 51.4723 57.3302 51.6823 57.4527Z" fill="black"/>
</svg>
