<svg width="29" height="29" viewBox="0 0 29 29" fill="none" xmlns="http://www.w3.org/2000/svg">
    <path fill-rule="evenodd" clip-rule="evenodd" d="M13.2215 3.55566C10.1551 3.55566 7.66938 6.04142 7.66938 9.10776V9.5186C5.14172 10.5238 3.52715 13.2351 4.09979 16.0983L5.45658 22.8822C5.89366 25.0676 7.81253 26.6407 10.0412 26.6407H18.7394C20.9681 26.6407 22.887 25.0676 23.324 22.8822L24.6808 16.0983C25.2535 13.2351 23.6389 10.5238 21.1113 9.51862V9.10776C21.1113 6.04142 18.6255 3.55566 15.5592 3.55566H13.2215ZM19.358 9.12167V9.10776C19.358 7.00974 17.6572 5.30896 15.5592 5.30896H13.2215C11.1235 5.30896 9.42267 7.00974 9.42267 9.10776V9.12166C9.55729 9.11247 9.69331 9.1078 9.83061 9.1078H18.95C19.0873 9.1078 19.2234 9.11247 19.358 9.12167ZM19.0657 14.952C19.7112 14.952 20.2346 14.4287 20.2346 13.7832C20.2346 13.1376 19.7112 12.6143 19.0657 12.6143C18.4202 12.6143 17.8968 13.1376 17.8968 13.7832C17.8968 14.4287 18.4202 14.952 19.0657 14.952ZM10.8837 13.7832C10.8837 14.4287 10.3604 14.952 9.71482 14.952C9.06927 14.952 8.54596 14.4287 8.54596 13.7832C8.54596 13.1376 9.06927 12.6143 9.71482 12.6143C10.3604 12.6143 10.8837 13.1376 10.8837 13.7832Z" fill="white"/>
</svg>
