<svg width="55" height="54" viewBox="0 0 55 54" fill="none" xmlns="http://www.w3.org/2000/svg">
    <path d="M19.6534 13.1163V7.32239C20.3599 7.20812 20.9894 7.10655 21.6532 7.00074C21.6789 7.25891 21.7088 7.50437 21.7345 7.75407C21.7645 7.75407 21.7945 7.75407 21.8244 7.75407C21.833 7.59748 21.8501 7.44089 21.8501 7.28853C21.8501 5.59565 21.8544 3.90277 21.8287 2.20989C21.8202 1.75704 22 1.48195 22.4111 1.40577C23.002 1.29997 23.6101 1.27034 24.2096 1.17723C24.4194 1.14337 24.6507 1.0672 24.8134 0.94023C25.1132 0.703226 25.2759 0.720157 25.4686 1.0545C25.5928 1.27458 25.7683 1.46502 25.8839 1.69356C25.9696 1.85862 26.0381 2.05753 26.0424 2.23952C26.0638 5.0243 26.0724 7.81332 26.0852 10.5981V11.0933C26.1237 11.0933 26.1666 11.0933 26.2051 11.0975V8.61744C26.8945 8.7825 27.494 8.90947 28.0764 9.09145C28.1663 9.12108 28.222 9.4004 28.222 9.56122C28.2349 12.3037 28.2349 15.0419 28.2391 17.7802C28.2391 17.9494 28.2648 18.1145 28.2777 18.2838C28.3333 18.2838 28.3933 18.2838 28.449 18.2838V17.687C28.449 14.6399 28.4575 11.5927 28.4618 8.5455C28.4618 7.88104 28.4618 7.84295 29.1427 7.81332C29.9092 7.77947 30.6543 7.41127 31.4422 7.6525C31.6863 7.72445 31.7933 7.56362 31.7762 7.34355C31.7505 7.00074 31.9389 6.93303 32.2301 6.9161C32.4185 6.90763 32.6027 6.84415 32.8853 6.7849C32.9538 7.01344 33.0823 7.26314 33.0908 7.51707C33.1294 8.82482 33.1337 10.1326 33.1508 11.4403C33.1508 11.6011 33.1508 11.762 33.2279 11.9228L33.4034 9.4004C33.4719 9.39617 33.5362 9.3877 33.6004 9.37924C33.6604 9.5189 33.7246 9.65433 33.7974 9.81939C33.8916 9.75591 33.9815 9.69666 34.1357 9.59508C34.1999 9.83632 34.2342 10.0437 34.3027 10.2384C34.5382 10.9028 34.7909 11.5588 35.0135 12.2317C35.0949 12.473 35.1249 12.7396 35.1334 12.9935C35.1891 14.6102 35.2319 16.2227 35.2833 17.8394C35.2833 17.9833 35.309 18.1272 35.3261 18.2711C35.3818 18.2711 35.4332 18.2711 35.4888 18.2711C35.4888 17.412 35.5188 16.5571 35.4803 15.7021C35.4589 15.1816 35.78 14.8134 36.0841 14.5679C36.5423 14.1997 36.6836 13.7596 36.8377 13.2602C36.9705 12.8285 37.2488 12.4391 37.4415 12.0201C37.5614 11.7662 37.6856 11.4996 37.7455 11.2287C37.7969 11.0129 37.7541 10.7759 37.7541 10.5473C37.7969 10.5304 37.8398 10.5177 37.8869 10.5008C37.9468 10.6023 38.0282 10.6997 38.0667 10.814C38.1823 11.1525 38.2508 11.5123 38.3922 11.8381C38.5078 12.1132 38.709 12.3502 38.8546 12.6126C38.9488 12.7862 39.0773 12.9724 39.0901 13.1628C39.1715 14.6822 39.2315 16.2058 39.2957 17.7251C39.3 17.886 39.2957 18.0468 39.2957 18.2118C39.3385 18.2118 39.3813 18.2118 39.4242 18.2118V14.314C39.908 14.4283 40.2806 14.5214 40.5803 14.022C40.7816 13.6792 41.638 13.8992 41.7408 14.2971C41.8736 14.8176 41.9506 15.3509 42.1005 15.8841C42.1005 15.2281 42.1005 14.5764 42.1005 13.9204C42.1005 13.2813 42.7343 12.9385 43.3338 13.2178C43.5607 13.3237 43.8391 13.3067 44.1217 13.3533C44.1388 13.548 44.1602 13.7469 44.1774 13.9415C44.1945 14.1405 44.2073 14.3394 44.2245 14.5764C44.6056 14.6229 44.9653 14.6695 45.3935 14.7245V18.2288H45.5177C45.5177 17.6701 45.5048 17.1115 45.5177 16.5528C45.5648 14.843 45.4877 15.1604 47.0464 15.1774C47.4147 15.1774 47.5988 15.3382 47.5817 15.7487C47.556 16.4089 47.5817 17.0734 47.5988 17.7336C47.5988 17.8944 47.6245 18.0553 47.6374 18.2118C47.6802 18.2118 47.723 18.2118 47.7658 18.2118C47.7658 17.5347 47.7744 16.8575 47.7658 16.1846C47.753 15.5794 47.7444 14.9742 48.0527 14.4325C48.1598 14.2463 48.3739 14.1108 48.5495 13.9712C48.9477 13.658 49.5087 13.4887 49.453 12.8158C49.453 12.7481 49.7099 12.6253 49.8598 12.5999C49.984 12.5788 50.1253 12.6634 50.2795 12.71C50.2795 12.71 50.3137 12.7481 50.3051 12.765C50.0825 13.2094 50.2966 13.4549 50.6863 13.6495C51.5855 14.0897 51.8938 14.8938 51.9581 15.8037C52.0095 16.4597 51.9838 17.1242 51.9923 17.7844C51.9923 17.9325 51.9923 18.0806 51.9923 18.2288C52.0351 18.2288 52.0737 18.2288 52.1208 18.2288V15.9942C52.1636 15.9857 52.2107 15.973 52.2535 15.9603C52.3092 16.0661 52.3734 16.1762 52.4205 16.282C52.9258 17.3823 53.1485 18.5547 53.3498 19.7439C53.5981 21.2125 53.9407 22.6641 54.2362 24.1285C54.279 24.3358 54.309 24.5517 54.309 24.7675C54.3133 26.5831 54.4117 28.4072 54.279 30.2144C54.1848 31.5052 54.0478 32.8341 53.2598 33.9895C52.7246 34.7724 52.2835 35.6231 51.851 36.4696C51.6883 36.787 51.6026 37.1763 51.6069 37.5318C51.6155 39.3982 50.7077 40.7991 49.4016 42.0307C49.1061 42.31 48.892 42.674 48.6565 43.0041C48.4296 43.3173 48.2583 43.6728 48.0013 43.9479C46.9822 45.0186 45.9288 46.0555 44.9096 47.122C44.3829 47.6722 43.7706 47.668 43.1154 47.469C42.4945 47.2828 41.9035 47.3294 41.2997 47.5749C40.6446 47.8415 39.968 48.0658 39.3 48.2943C38.4221 48.5948 37.8869 49.1916 37.4929 50.0211C37.1803 50.6771 36.7093 51.2611 36.2639 51.8451C36.1312 52.0187 35.8485 52.1202 35.613 52.171C33.5619 52.6323 31.4979 52.9455 29.3825 52.9286C28.6845 52.9286 27.9908 53.2037 27.2885 53.2714C26.7703 53.318 26.2308 53.2714 25.7127 53.1868C23.426 52.8313 21.1479 52.4165 18.9297 51.7647C18.206 51.5531 17.4995 51.2442 16.8272 50.9056C15.6239 50.3004 14.4206 49.6867 13.2772 48.9842C12.3052 48.3874 11.4059 47.6807 10.4981 46.9866C10.2241 46.775 10.0485 46.4364 9.79583 46.1867C9.37618 45.7677 8.92656 45.3783 8.48977 44.9721C8.4127 44.9001 8.33133 44.8239 8.27138 44.7393C7.68473 43.9479 7.10235 43.1564 6.51997 42.365C6.49428 42.3269 6.46431 42.2719 6.43005 42.2634C5.65069 42.1026 5.53079 41.3451 5.11971 40.8541C4.7857 40.4563 4.48595 40.0288 4.19048 39.6014C4.05345 39.4025 3.94639 39.1824 3.85647 38.9623C3.61238 38.3867 3.4154 37.7858 3.13278 37.2314C2.4562 35.9067 2.06652 34.4847 1.64258 33.0669C1.03023 31.0227 0.884642 28.9278 0.871796 26.8159C0.871796 26.5958 1.06449 26.3715 1.19724 26.1641C1.29145 26.016 1.4713 25.9145 1.54838 25.7579C2.20783 24.4205 2.3834 23.0408 1.81815 21.6272C1.48415 20.785 1.60833 19.9724 1.88239 19.1556C1.9766 18.8636 2.06652 18.5674 2.20355 18.2923C2.7688 17.1496 3.31691 15.9984 3.63808 14.7584C3.71087 14.4875 3.8479 14.3817 4.13481 14.4367C4.5202 14.5087 4.91416 14.5298 5.29956 14.6018C5.62072 14.661 5.73634 14.8599 5.72777 15.1985C5.70636 16.1931 5.71921 17.1876 5.71921 18.1822C5.78773 18.1822 5.85196 18.1822 5.92047 18.1865C5.92047 18.0214 5.92047 17.8563 5.92047 17.6913C5.9376 16.9083 5.97614 16.1211 5.96329 15.3382C5.95901 14.9996 6.10889 14.8599 6.39579 14.8007C6.59277 14.7584 6.79832 14.7033 6.9953 14.716C7.52628 14.7584 7.81747 14.5679 7.7618 13.9415C8.42126 13.9035 9.05074 13.8696 9.77014 13.8273V18.2034C9.81725 18.2034 9.86435 18.2034 9.91573 18.2034V14.6568C10.5152 14.8472 11.1447 14.5806 11.6115 15.0631C12.1211 15.5921 12.7248 15.3213 13.3029 15.2832C13.714 15.2535 14.1294 15.1774 14.5405 15.1774C14.8274 15.1774 14.8916 15.4059 14.8873 15.6683C14.8788 16.5105 14.8873 17.3569 14.8873 18.1991C14.9302 18.1991 14.973 18.2076 15.0158 18.2076C15.0244 18.0552 15.0458 17.9071 15.0501 17.759C15.0757 14.8218 15.1014 11.8805 15.1271 8.94332C15.1271 8.35505 15.5125 8.11381 16.1163 8.18153C16.6045 8.23655 17.1098 8.10535 17.6022 8.14767C18.1846 8.19422 18.7627 8.32119 19.3322 8.45662C19.4136 8.47355 19.4778 8.73595 19.4778 8.88407C19.4992 10.2088 19.5035 11.5334 19.5121 12.8539C19.5121 12.9428 19.5249 13.0316 19.5335 13.1205C19.5677 13.1247 19.6148 13.129 19.662 13.1332L19.6534 13.1163ZM44.7854 24.9834C44.7683 24.8606 44.7255 24.6025 44.6827 24.3443C44.5885 23.7941 44.1517 23.3243 43.595 23.2609C43.3723 23.2355 43.064 23.2863 42.9141 23.4259C42.503 23.7983 42.1219 24.2089 41.7922 24.6533C41.3254 25.2881 41.6466 26.0541 42.4174 26.2107C42.7514 26.2784 43.0854 26.3461 43.4237 26.3758C44.2116 26.4562 44.8154 25.8891 44.7854 24.9791V24.9834ZM42.5801 35.238C42.6315 35.4411 42.6915 35.7755 42.8114 36.0802C42.8627 36.2199 43.0212 36.3595 43.1668 36.4103C43.8905 36.6896 44.5157 36.3638 44.7726 35.6231C44.8796 35.3099 45.0895 35.0222 45.1537 34.7047C45.2222 34.3789 45.2907 33.981 45.158 33.7017C44.9439 33.2362 44.1388 32.9865 43.6421 33.1388C43.0854 33.3081 42.7728 33.6975 42.7043 34.273C42.67 34.5481 42.6358 34.8232 42.5844 35.2338L42.5801 35.238ZM24.5693 35.5173C25.0575 35.42 25.3572 35.1364 25.5371 34.7217C25.7041 34.3281 25.8368 33.9049 25.4472 33.5747C25.1089 33.2912 24.7235 33.0499 24.3381 32.8256C23.9955 32.6267 23.6444 32.686 23.3446 32.9357C22.9764 33.2404 22.6124 33.5451 22.2698 33.8752C21.9315 34.1969 21.9914 34.7682 22.4111 34.9121C23.1219 35.1491 23.8542 35.3184 24.5736 35.5173H24.5693ZM34.945 32.0004C34.9621 33.3758 35.3261 33.4774 36.2853 33.5493C36.3624 33.5536 36.4395 33.5705 36.5166 33.5874C36.8035 33.6467 37.009 33.5493 37.1974 33.3166C37.5571 32.8722 37.7284 32.3643 37.6899 31.8184C37.6042 30.591 37.1589 30.3837 36.1526 30.6249C35.3004 30.8238 34.9364 31.2428 34.945 31.9961V32.0004ZM36.3667 39.1485C35.4075 39.212 34.7009 39.7157 34.1143 40.359C33.7075 40.8033 33.9259 41.2519 34.4911 41.4636C34.9022 41.6159 35.2833 41.8402 35.6773 42.0349C35.9684 42.183 36.1997 42.2296 36.4009 41.8741C36.6065 41.5101 36.872 41.1715 37.1246 40.8372C37.3559 40.5325 37.5957 40.232 37.3773 39.8384C37.1546 39.4448 36.8249 39.1866 36.371 39.1528L36.3667 39.1485ZM7.37213 33.1473C7.8603 33.215 8.38272 33.105 8.74242 32.6267C9.00363 32.2754 8.94796 31.3782 8.69532 31.0396C8.34418 30.5656 7.7618 30.4048 7.05524 30.5868C6.31871 30.773 6.08748 31.0058 6.00611 31.6575C5.83483 33.0076 5.9376 33.1304 7.37641 33.1431L7.37213 33.1473ZM14.6218 36.5542C14.6133 36.5796 14.6047 36.6092 14.5919 36.6346C14.4977 36.6346 14.3992 36.6262 14.3135 36.6515C13.7568 36.8251 13.1274 36.9182 12.9047 37.5615C12.742 38.0439 12.8961 38.4841 13.3072 38.7973C13.774 39.1485 14.3221 39.4448 14.8916 39.2374C15.504 39.0089 15.9365 38.4926 16.0435 37.8323C16.0863 37.5742 15.9964 37.1594 15.808 37.024C15.4783 36.7827 15.0244 36.7023 14.6218 36.55V36.5542ZM30.3031 27.455C30.8684 27.5565 31.2067 27.2391 31.4293 26.8159C31.5921 26.4985 31.7077 26.1261 31.7377 25.7706C31.7976 24.9876 31.1938 24.3358 30.4402 24.3358C30.2946 24.3358 30.0462 24.5009 30.0248 24.6236C29.9563 24.9707 29.7679 25.1696 29.4981 25.3812C28.6716 26.0372 28.6973 26.9006 29.5409 27.2984C29.7722 27.4084 30.0505 27.4084 30.3031 27.4592V27.455ZM29.0784 48.4467C28.8301 48.5102 28.4789 48.4932 28.359 48.6498C28.0122 49.1027 27.7081 49.6105 27.4855 50.1311C27.4041 50.3216 27.5197 50.7236 27.6867 50.8548C27.8623 50.9945 28.2177 50.9733 28.4789 50.9352C28.8986 50.8717 29.3011 50.7067 29.7165 50.6432C30.3545 50.5459 30.7057 50.2454 30.847 49.619C30.9326 49.2339 30.8256 48.9249 30.4445 48.798C30.012 48.6498 29.5495 48.5652 29.0742 48.4509L29.0784 48.4467ZM18.0048 27.4973C17.842 27.0191 17.6707 26.5493 17.5166 26.071C17.4052 25.7198 17.1526 25.5801 16.8186 25.597C16.4931 25.614 16.172 25.6478 16.035 26.0414C15.9407 26.3123 15.7523 26.5493 15.6196 26.8117C15.0201 27.9798 15.2385 28.3649 16.5103 28.6781C17.2425 28.8558 17.9534 28.2803 18.0048 27.4973ZM25.5157 42.7713C25.5371 42.7459 25.5542 42.7205 25.5756 42.6951C25.7512 42.6613 25.9525 42.6655 26.098 42.5809C26.7746 42.2 27.2714 40.9303 27.0573 40.1939C26.8988 39.6522 26.2394 39.3982 25.8026 39.7537C25.3958 40.0796 25.0275 40.4563 24.6849 40.8499C24.3209 41.2689 24.231 41.8233 24.5179 42.2592C24.6935 42.5301 25.1731 42.6063 25.5157 42.7671V42.7713ZM23.4303 23.1254C23.366 22.9307 23.2633 22.5498 23.1134 22.1816C23.062 22.0547 22.9207 21.8896 22.8093 21.8769C22.2184 21.8134 21.6189 21.7542 21.0237 21.7669C20.6426 21.7754 20.5269 22.0504 20.5912 22.4229C20.7496 23.3159 21.3491 23.9338 22.334 24.1708C23.0791 24.3528 23.4303 24.0819 23.4345 23.1212L23.4303 23.1254ZM18.1247 46.3898C18.1247 45.6958 17.6579 45.1244 16.977 44.9932C16.6173 44.9213 16.309 44.9636 16.142 45.3656C16.0692 45.5392 15.9279 45.7085 15.7737 45.827C15.307 46.1867 15.2899 46.5676 15.7823 46.9146C16.2748 47.2574 16.8357 47.3548 17.4181 47.249C18.0433 47.1389 18.1247 47.0162 18.1247 46.3898ZM17.4566 49.382C16.6516 49.1704 15.8508 49.0604 15.1443 48.7472C14.442 48.434 13.8339 47.9134 13.2002 47.4944C13.1787 47.9854 13.5042 48.362 14.3435 48.7726C15.5254 49.3481 17.0969 49.6698 17.4566 49.3778V49.382ZM50.1424 37.3245C50.091 37.316 50.0354 37.3075 49.984 37.2948C49.9583 37.4641 49.9283 37.6376 49.9026 37.8112C49.8727 38.0228 49.9026 38.2725 49.7956 38.4333C49.286 39.212 48.7336 39.9696 48.2069 40.7356C48.1384 40.833 48.117 40.9642 48.0741 41.0742C48.194 41.053 48.3225 41.0446 48.4338 40.998C48.5152 40.9642 48.5923 40.8922 48.6437 40.8203C49.0505 40.2066 49.483 39.6099 49.8427 38.9666C50.121 38.4672 50.2238 37.8958 50.1424 37.3202V37.3245ZM2.82875 23.3201C3.11993 22.8165 3.08139 22.3636 2.93152 21.9573C2.64889 21.1786 2.68744 20.3999 2.7688 19.6042C2.80305 19.2826 2.77308 18.9567 2.77308 18.5039C2.17357 20.1714 2.52471 21.6949 2.82446 23.3201H2.82875ZM53.4012 25.8129C53.4611 25.8002 53.5168 25.7875 53.5767 25.7748C53.5767 25.5336 53.5767 25.2881 53.5767 25.0426C53.5853 24.3401 53.5339 23.6671 53.0115 23.1085C52.9087 22.9985 52.9301 22.7699 52.9001 22.5922C52.8659 22.3594 52.8359 22.1224 52.8059 21.8896C52.7374 21.8981 52.6689 21.9066 52.6004 21.9193C52.6304 22.3044 52.5918 22.7107 52.7074 23.0662C53.0029 23.9634 53.5853 24.776 53.3969 25.8171L53.4012 25.8129Z" fill="#E4ECFE"/>
    <path d="M40.6916 52.2817C41.3939 52.2902 41.638 52.4341 41.6208 52.8361C41.608 53.2509 41.1669 53.7334 40.8158 53.7207C40.2805 53.7037 40.0707 53.4964 40.075 52.9927C40.075 52.3748 40.1649 52.2733 40.6916 52.2817Z" fill="#E4ECFE"/>
    <path d="M40.4775 50.6516C40.4518 50.4781 40.4176 50.3299 40.409 50.1776C40.3919 49.6232 40.6702 49.3819 41.2098 49.5174C41.3725 49.5597 41.5566 49.6867 41.6294 49.8263C41.668 49.8983 41.4881 50.0845 41.3939 50.2157C41.3511 50.2749 41.2612 50.2961 41.2226 50.3596C40.9571 50.7447 40.9614 50.7447 40.4732 50.6558L40.4775 50.6516Z" fill="#E4ECFE"/>
    <path d="M44.1045 49.6242C43.8647 49.8146 43.7362 49.9924 43.6463 49.9712C43.5093 49.9458 43.3979 49.785 43.278 49.6792C43.3808 49.5649 43.4707 49.383 43.5992 49.3533C43.6977 49.3237 43.8475 49.4761 44.1045 49.6242Z" fill="#E4ECFE"/>
</svg>
