<?xml version="1.0" standalone="no"?>
<!DOCTYPE svg PUBLIC "-//W3C//DTD SVG 20010904//EN"
 "http://www.w3.org/TR/2001/REC-SVG-20010904/DTD/svg10.dtd">
<svg version="1.0" xmlns="http://www.w3.org/2000/svg"
 width="176.000000pt" height="168.000000pt" viewBox="0 0 176.000000 168.000000"
 preserveAspectRatio="xMidYMid meet">

<g transform="translate(0.000000,168.000000) scale(0.100000,-0.100000)"
fill="#000000" stroke="none">
<path d="M227 1662 c-11 -12 -17 -36 -17 -70 l0 -52 -48 0 c-82 0 -82 0 -82
-268 0 -265 -1 -262 80 -262 l49 0 3 -97 c3 -97 3 -98 28 -98 25 0 25 1 28 98
l3 97 609 0 610 0 0 -215 0 -215 -49 0 c-51 0 -78 -18 -67 -45 4 -11 21 -15
61 -15 l55 0 0 -85 0 -85 -150 0 -150 0 0 85 0 85 61 0 c60 0 60 0 57 28 -3
26 -6 27 -60 30 l-58 3 0 44 c0 39 3 45 21 45 31 0 59 19 59 40 0 30 -50 173
-67 193 -15 15 -43 17 -323 17 -354 0 -323 9 -364 -109 -38 -110 -33 -141 26
-141 27 0 28 -2 28 -45 l0 -45 -150 0 -150 0 0 86 0 85 -27 -3 -28 -3 -3 -278
-2 -277 -61 0 c-71 0 -113 -19 -134 -60 -18 -35 -20 -101 -3 -118 9 -9 216
-12 870 -12 837 0 858 0 868 19 15 28 12 77 -5 111 -21 41 -63 60 -135 60
l-60 0 0 410 0 410 49 0 c80 0 81 4 81 267 0 210 -1 224 -20 243 -14 14 -33
20 -65 20 l-45 0 0 48 c0 27 -7 57 -16 70 l-15 22 -638 0 c-605 0 -639 -1
-654 -18z m1261 -79 l3 -42 -63 -3 c-60 -3 -63 -4 -63 -28 l0 -25 128 -3 127
-3 0 -204 0 -205 -740 0 -740 0 0 205 0 205 578 2 577 3 3 28 3 27 -515 0
-516 0 0 38 c0 21 3 42 7 45 3 4 277 6 607 5 l601 -3 3 -42z m-748 -721 c0 -4
-10 -35 -23 -67 l-23 -60 -67 -3 c-37 -2 -67 1 -67 6 0 15 33 107 43 120 10
13 137 17 137 4z m202 -4 c16 -14 48 -88 48 -113 0 -12 -19 -15 -108 -15 -60
0 -111 2 -114 6 -7 6 29 103 44 122 6 7 33 12 62 12 29 0 59 -6 68 -12z m207
3 c12 -8 51 -102 51 -123 0 -13 -127 -9 -137 5 -10 12 -43 104 -43 119 0 11
111 10 129 -1z m-299 -431 l0 -240 -110 0 -110 0 0 240 0 240 110 0 110 0 0
-240z m280 0 l0 -240 -110 0 -110 0 0 240 0 240 110 0 110 0 0 -240z m-560 5
l0 -85 -150 0 -150 0 0 85 0 85 150 0 150 0 0 -85z m0 -195 l0 -50 -150 0
-150 0 0 50 0 50 150 0 150 0 0 -50z m920 0 l0 -50 -150 0 -150 0 0 50 0 50
150 0 150 0 0 -50z m192 -127 c10 -9 18 -24 18 -35 0 -17 -30 -18 -820 -18
-760 0 -820 1 -820 17 0 9 7 25 17 35 15 17 53 18 801 18 717 0 787 -1 804
-17z"/>
<path d="M627 1413 c-67 -3 -78 -6 -75 -21 2 -12 15 -18 41 -20 20 -2 37 -7
37 -11 0 -4 -15 -54 -34 -112 -33 -100 -34 -105 -16 -123 17 -18 18 -17 25 15
8 35 48 164 67 212 9 24 16 27 55 27 41 0 43 1 33 20 -6 12 -19 19 -33 18 -12
-1 -57 -4 -100 -5z"/>
<path d="M788 1413 c-16 -4 -16 -7 -4 -31 7 -15 21 -52 31 -82 16 -53 15 -58
-3 -112 l-19 -57 25 -6 c13 -3 25 -5 27 -3 1 2 8 32 14 67 11 54 21 75 69 134
50 62 57 67 64 48 8 -22 23 -27 33 -11 3 6 12 10 20 10 12 0 12 -4 0 -27 -7
-16 -28 -61 -46 -102 l-32 -74 27 -24 c34 -29 79 -29 131 0 53 30 73 67 59
105 -9 24 -8 33 8 51 64 80 -38 148 -156 106 -27 -9 -45 -11 -57 -4 -16 8 -25
-1 -60 -56 -23 -36 -46 -64 -53 -62 -6 2 -18 34 -26 70 -8 37 -19 66 -25 66
-5 -1 -18 -3 -27 -6z m402 -42 c16 -31 -24 -71 -78 -78 -23 -3 -42 -4 -42 -1
0 2 9 22 19 44 11 21 17 42 14 46 -2 5 14 8 36 8 30 0 43 -5 51 -19z m-22
-129 c6 -42 -61 -92 -123 -92 -30 0 -32 16 -10 75 l16 40 57 0 c52 0 57 -2 60
-23z"/>
</g>
</svg>
