<svg width="126" height="84" viewBox="0 0 126 84" fill="none" xmlns="http://www.w3.org/2000/svg">
    <g clip-path="url(#clip0_2656_16)">
        <path d="M125.321 10.2029C124.642 11.3585 123.609 12.3209 122.651 13.2916C121.447 14.5061 120.789 15.7836 121.381 17.5653C121.96 19.3093 121.422 20.8894 120.281 22.2551C119.686 22.9653 119.036 23.6293 118.361 24.2638C117.286 25.2682 116.757 26.4574 116.949 27.9408C117.166 29.605 116.582 31.0716 115.483 32.1936C112.8 34.9377 112.521 37.6146 114.691 40.9386C116.478 43.6827 115.937 46.2755 113.675 48.6961C112.388 50.0786 110.893 51.2637 109.501 52.5538C108.76 53.2388 108.048 53.9658 107.306 54.6549C105.353 56.4661 105.065 58.6135 106.244 60.908C107.29 62.9461 108.598 64.8413 109.647 66.8795C110.776 69.0647 111.78 71.3171 112.742 73.5821C113.004 74.2041 112.988 74.9731 112.979 75.6749C112.967 77.0406 112.284 78.0534 111.068 78.6123C109.876 79.1586 108.677 78.9065 107.769 78.0156C106.831 77.0953 106.028 76.0321 105.232 74.9773C103.741 73.0064 102.304 70.9935 100.838 69.0016C99.7671 67.5434 98.2801 66.8837 96.5224 66.8206C95.2061 66.7702 93.8816 66.871 92.5695 66.7618C91.4032 66.6609 90.2078 66.4886 89.0957 66.1272C86.4507 65.2616 85.6801 65.5095 84.2973 67.9931C84.2348 68.1107 84.164 68.2242 84.1098 68.3461C82.8394 71.2078 80.4694 72.271 77.5412 72.3719C76.529 72.4097 75.5168 72.3803 74.5088 72.3803C70.4185 72.3845 68.4858 73.9646 67.5653 77.982C67.3029 79.1418 67.0363 80.3269 66.5531 81.4026C65.2952 84.1972 62.2004 84.8906 60.0553 82.7222C58.814 81.4657 57.9143 79.8352 56.998 78.2887C55.9858 76.5868 55.1527 74.7756 54.2072 73.0316C53.5907 71.8928 52.6744 71.6239 51.4206 72.0231C48.2842 73.0232 46.4306 72.4391 44.398 69.7959C43.4566 68.573 42.7068 67.2072 41.7946 65.9634C40.0661 63.6101 38.7665 63.1772 35.9799 63.9168C35.301 64.0933 34.6179 64.2656 33.9431 64.4631C31.2981 65.2364 28.8198 64.8455 26.4997 63.3663C25.7583 62.8957 25.0127 62.4292 24.2879 61.9249C22.2761 60.5214 20.1018 59.5086 17.6651 59.143C14.7453 58.706 12.3835 57.3612 10.5716 54.9869C10.0135 54.2557 9.35121 53.5539 8.60146 53.0412C5.03181 50.5871 3.54064 47.053 3.2574 42.8717C3.06579 40.0561 2.42434 37.354 1.24973 34.8074C-0.449712 31.1262 -0.303927 27.4534 1.0123 23.7091C2.25773 20.175 3.52814 16.6408 4.58612 13.0436C5.0693 11.4132 5.0693 9.63557 5.28589 7.92523C5.30255 7.79496 5.31088 7.66049 5.34004 7.53022C6.02315 4.07171 7.12695 3.6767 9.78857 5.94594C10.2134 6.30734 10.6425 6.67295 11.2131 7.15621C11.3714 6.43341 11.4505 5.95435 11.5796 5.49209C12.1461 3.49179 13.2333 2.69756 15.2826 2.97071C16.3572 3.11359 17.4652 3.36152 18.444 3.81958C24.5045 6.66034 31.0399 7.5008 37.5294 8.62282C43.4899 9.65659 49.4213 9.59355 55.3735 8.79511C59.0598 8.29924 62.6461 8.63963 66.1199 10.0096C68.4775 10.9383 70.9059 11.4552 73.4592 11.2198C75.7334 11.0055 77.2829 11.9721 77.9827 14.1909C78.5367 15.9474 79.8404 16.5442 81.519 16.5778C82.3104 16.5904 83.1018 16.5778 83.8932 16.5904C85.7801 16.6114 86.6382 17.3468 86.7923 19.2673C86.9006 20.6288 86.7964 22.0114 86.8548 23.3813C86.8922 24.2596 86.9505 25.1631 87.1838 25.9994C87.5462 27.2937 88.6542 27.6635 89.7746 26.9155C90.3161 26.5499 90.7826 26.0624 91.2575 25.6044C92.3446 24.5538 93.6442 24.0789 95.1187 24.3395C96.6099 24.6 97.7262 24.0159 98.8466 23.1208C100.492 21.8097 102.179 20.5448 103.941 19.4017C105.353 18.4856 106.519 17.4141 107.144 15.8298C108.044 13.5605 109.551 11.8334 111.655 10.6441C113.55 9.56834 114.475 7.88741 115.087 5.84089C115.545 4.30704 116.162 2.71017 117.124 1.46628C118.623 -0.479389 120.752 -0.491996 122.281 1.43266C123.697 3.21444 124.913 5.20634 125.871 7.26547C126.221 8.01348 125.809 9.37503 125.321 10.2029Z" fill="white"/>
        <path d="M11.2129 7.15673C11.3712 6.43393 11.4504 5.95487 11.5837 5.49261C12.1501 3.49231 13.2331 2.69808 15.2824 2.97123C16.3571 3.1141 17.4692 3.36204 18.4439 3.82009C24.5085 6.66086 31.0439 7.50132 37.5334 8.62754C43.4939 9.66131 49.4253 9.59827 55.3775 8.79563C59.0638 8.29976 62.6459 8.64435 66.1198 10.0101C68.4815 10.9388 70.9057 11.4557 73.459 11.2204C75.7333 11.0102 77.2828 11.9768 77.9825 14.1956C78.5365 15.9522 79.8361 16.5489 81.5189 16.5783C82.3103 16.5951 83.1017 16.5783 83.8931 16.5909C85.7841 16.6119 86.638 17.3473 86.7921 19.2678C86.9004 20.6335 86.7963 22.0119 86.8546 23.3819C86.8921 24.2601 86.9504 25.1636 87.1836 25.9999C87.5419 27.29 88.6498 27.6598 89.7745 26.9118C90.3159 26.5504 90.7825 26.0587 91.2573 25.6007C92.3486 24.5501 93.644 24.0794 95.1185 24.3358C96.6097 24.5963 97.726 24.0122 98.8506 23.1171C100.492 21.806 102.179 20.5411 103.941 19.3981C105.357 18.482 106.519 17.4104 107.148 15.8261C108.048 13.5568 109.555 11.8297 111.659 10.6362C113.554 9.56465 114.479 7.87953 115.091 5.833C115.549 4.29916 116.166 2.70648 117.128 1.4626C118.632 -0.487276 120.756 -0.499883 122.289 1.42898C123.701 3.20656 124.921 5.20265 125.879 7.26179C126.229 8.0098 125.817 9.36714 125.329 10.195C124.65 11.3506 123.617 12.3172 122.659 13.2837C121.456 14.4982 120.798 15.7757 121.389 17.5574C121.968 19.3014 121.431 20.8815 120.289 22.2472C119.698 22.9574 119.044 23.6214 118.369 24.2517C117.299 25.2561 116.766 26.4453 116.961 27.9287C117.178 29.5929 116.591 31.0595 115.495 32.1815C112.813 34.9256 112.534 37.6025 114.704 40.9265C116.495 43.6664 115.953 46.2634 113.692 48.684C112.4 50.0665 110.909 51.2516 109.518 52.5375C108.772 53.2267 108.064 53.9495 107.323 54.6386C105.373 56.4498 105.082 58.5972 106.261 60.8917C107.306 62.9298 108.618 64.8292 109.668 66.8632C110.797 69.0484 111.796 71.3008 112.759 73.5658C113.021 74.1878 113.008 74.9568 113 75.6544C112.988 77.0201 112.3 78.0371 111.088 78.5918C109.893 79.1381 108.697 78.8902 107.789 77.9951C106.852 77.0748 106.048 76.0116 105.253 74.9568C103.762 72.9859 102.324 70.973 100.862 68.9811C99.792 67.5229 98.305 66.859 96.5472 66.7959C95.231 66.7497 93.9064 66.8506 92.5944 66.7371C91.4239 66.6362 90.2326 66.4639 89.1205 66.1025C86.4714 65.2411 85.705 65.489 84.3221 67.9726C84.2596 68.0902 84.1888 68.1995 84.1347 68.3214C82.8643 71.1873 80.4942 72.2463 77.566 72.3514C76.558 72.385 75.5458 72.3556 74.5337 72.3598C70.4434 72.364 68.5107 73.9441 67.5943 77.9615C67.3277 79.1213 67.0653 80.3064 66.5821 81.3779C65.3242 84.1767 62.2294 84.8659 60.0801 82.6975C58.8389 81.441 57.9392 79.8105 57.0228 78.2682C56.0106 76.5621 55.1776 74.7551 54.232 73.0111C53.6156 71.8723 52.6992 71.6034 51.4455 72.0026C48.309 73.0027 46.4513 72.4144 44.4186 69.7754C43.4773 68.5567 42.7275 67.1867 41.8153 65.9429C40.0867 63.5896 38.7872 63.1567 36.0006 63.8921C35.3216 64.0728 34.6427 64.2409 33.9679 64.4384C31.3188 65.2117 28.8446 64.8208 26.5245 63.3416C25.7831 62.871 25.0375 62.4003 24.3128 61.9002C22.2968 60.4967 20.1225 59.4839 17.69 59.1183C14.7701 58.6813 12.4042 57.3407 10.5965 54.9622C10.0425 54.231 9.37605 53.5292 8.63046 53.0165C5.06081 50.5624 3.56964 47.0283 3.28223 42.847C3.09063 40.0314 2.44917 37.3293 1.27456 34.7827C-0.420711 31.1015 -0.274926 27.4287 1.04131 23.6886C2.28673 20.1503 3.55298 16.6161 4.61512 13.0232C5.09413 11.3927 5.0983 9.61508 5.31489 7.90474C5.33155 7.77447 5.33988 7.63999 5.36488 7.50972C6.05215 4.04702 7.15178 3.6562 9.8134 5.92545C10.2383 6.28685 10.6673 6.65245 11.2379 7.13572L11.2129 7.15673ZM7.94735 7.87112C7.84322 8.40061 7.69327 8.85446 7.67245 9.31251C7.48084 13.6241 6.26041 17.6583 4.50266 21.558C4.03198 22.6002 3.64878 23.6928 3.31139 24.7854C2.4575 27.5547 2.1826 30.3535 3.3697 33.0976C4.79007 36.3754 5.66061 39.7625 5.91053 43.3386C6.13545 46.503 7.46002 49.0748 10.105 50.9574C11.163 51.7096 12.0668 52.735 12.9082 53.7435C14.0578 55.1303 15.4449 56.101 17.1985 56.3826C20.7431 56.9541 23.9337 58.2904 26.7911 60.4841C27.4118 60.9631 28.1115 61.4632 28.8488 61.6397C30.0525 61.9296 31.3188 62.0893 32.5517 62.0641C33.4931 62.0473 34.4344 61.6775 35.3675 61.4338C39.3286 60.3958 41.403 61.1018 43.8355 64.409C44.7768 65.6865 45.5932 67.0607 46.5304 68.3382C47.4968 69.6535 48.6714 70.2544 50.4125 69.6829C53.4573 68.687 55.0568 69.3173 56.7021 72.095C57.7101 73.8012 58.4473 75.667 59.422 77.39C60.0884 78.5708 60.8549 79.7222 61.7546 80.7266C62.6501 81.7225 63.808 81.42 64.3454 80.1845C64.5203 79.7853 64.5578 79.3272 64.7036 78.9112C65.2992 77.2093 65.7532 75.4317 66.553 73.8264C67.7276 71.4689 69.6978 70.0485 72.3969 69.8846C73.6215 69.809 74.8586 69.7375 76.0832 69.809C78.9905 69.9813 81.2856 69.166 82.3852 66.1824C82.4602 65.9807 82.606 65.8 82.7226 65.6151C84.1513 63.3374 85.6966 62.6356 88.3083 63.2744C90.62 63.8417 92.9109 64.3628 95.3185 64.1821C98.8131 63.9173 101.533 65.2747 103.545 68.1953C105.224 70.6284 107.002 72.9985 108.781 75.356C109.06 75.73 109.593 75.9065 110.005 76.1755C110.134 75.6544 110.372 75.1375 110.363 74.6164C110.359 74.1037 110.18 73.5574 109.947 73.0952C108.997 71.2042 108.031 69.3257 107.01 67.4725C106.094 65.8126 104.994 64.2451 104.17 62.5432C102.062 58.1896 102.608 55.4077 106.144 52.0962C107.494 50.8313 108.951 49.6841 110.334 48.4528C112.871 46.1962 114.171 44.3682 111.721 40.6576C111.48 40.292 111.292 39.8843 111.117 39.4809C110.064 37.0394 110.28 34.7365 111.909 32.6101C112.284 32.1185 112.663 31.6268 113.071 31.1645C114.116 29.9795 114.666 28.6642 114.433 27.0337C114.241 25.6847 114.712 24.5039 115.616 23.5037C116.503 22.5204 117.399 21.5496 118.282 20.5621C118.948 19.8183 119.211 18.9568 118.873 17.9861C118.011 15.4941 118.848 13.5064 120.614 11.7415C121.485 10.8716 122.28 9.92185 123.055 8.95952C123.276 8.68637 123.497 8.13166 123.372 7.90894C122.484 6.33728 121.535 4.79923 120.543 3.2948C120.023 2.50057 119.331 2.57621 118.877 3.35784C118.373 4.22352 117.815 5.13542 117.624 6.09354C117.003 9.19905 115.453 11.5313 112.654 13.0442C111.213 13.8216 110.23 15.0739 109.643 16.6161C108.835 18.7383 107.319 20.1881 105.469 21.4194C103.607 22.6591 101.837 24.0332 100.059 25.3948C98.9173 26.2688 97.7718 27.1387 96.2556 26.9286C94.4021 26.6723 93.0525 27.2564 91.7155 28.6305C89.3996 31.0217 85.5633 29.9417 84.7345 26.7185C84.3762 25.3317 84.4221 23.8315 84.3471 22.3775C84.2929 21.3395 84.3346 20.3016 84.3346 19.3266C82.7101 19.1879 81.3939 19.1333 80.0985 18.9568C78.0242 18.6711 76.4414 17.6205 75.8124 15.5403C75.3876 14.141 74.5545 13.5947 73.1883 13.7586C70.4892 14.0779 67.9317 13.4812 65.4742 12.4642C62.1086 11.0733 58.6348 11.0271 55.1068 11.3632C52.6576 11.5986 50.2001 12.0524 47.7592 11.9684C43.8646 11.8297 39.9659 11.4641 36.1005 10.9472C30.0067 10.1278 23.9421 9.12761 18.2856 6.48016C17.3817 6.05572 16.3571 5.90024 15.4032 5.57666C14.4702 5.26149 14.1161 5.67751 13.9912 6.5516C13.8746 7.33743 13.7538 8.13587 13.5122 8.88388C13.0082 10.4429 12.0793 10.7959 10.6881 9.92185C9.76759 9.34193 8.93869 8.61073 7.95152 7.85431L7.94735 7.87112Z" fill="#141414"/>
    </g>
    <defs>
        <clipPath id="clip0_2656_16">
            <rect width="126" height="84" fill="white"/>
        </clipPath>
    </defs>
</svg>
